<svg xmlns="http://www.w3.org/2000/svg" xml:space="preserve" width="2000" height="1500" data-id="lg_jMVQd5uvQenNssMCc2" data-version="1" viewBox="0 0 2000 1500"><path fill="#b4d3a9" stroke="transparent" d="M0 0h2000v1500H0z"/><g data-padding="20"><g transform="translate(-1670.863 -1255.865)scale(2.6008)"><rect width="585.417" height="137.86" x="493.544" y="553.079" fill="none" rx="0" ry="0" transform="matrix(.95 0 0 .95 280 295.21)"/><path fill="#110b0f" d="M776.64 922.268v.7l-.23-.12h-2.74q-.29 0-.64-.12-.35-.23-1.05-.34l-2.68.46q-.81-.35-2.1-.7l-2.33.47q-.93-.23-1.28-.47l-.11-.35.81-15.03q1.05-1.98 1.05-2.44v-.47q0-.23-.12-.58-.23-.82-.11-1.17 0-.58.35-1.39l.35-.94-.7-2.44.35-1.05q.11-.23.23-.7t.23-1.17l.93-1.39-1.16-.82.23-.93v-.12q0-.46-.46-.93l.11-.47q.24-.11.59-.29.34-.17.81-.52l.23-.12q-1.28-1.05-1.28-1.4l.47-.81q0-.12-.7-.47v-1.4q0-.23.06-.46t.17-.58q.24-.35.82-.35l.23-.24q-1.05-3.84-1.05-4.42l.24-.7.23-.82.11-1.75q.12-.11.3-.29.17-.17.52-.4l-.93-1.05q-.12-.59 0-1.05-.35-1.75-.35-2.56 0-.35.23-.59.12 0 .35.24.12-.47.18-.82.05-.35.05-.47-.11-.58-.11-.75 0-.18-.12.05l.47-3.14q.11-.23.23-.47.12-.23.23-.46l-.35-.93q-.46-.82-.46-.94 0-.11.58-1.51l1.05-.58q-.35-.35-1.05-.35 0-.35-.06-.7t-.06-.7q0-1.98.12-2.86.12-.87.23-.52l-.23-.58q-.12-.24-.12-.59 0-1.16 2.1-.93l.7.24q.58.35.7.35l.46-.24q.24-.11.59-.11.35.35.7.58 1.39.58 1.86.58.23 0 .47-.58.46-.12.81-.18.35-.05.82.06.23 0 1.05 1.05.7 1.17.81 1.17l1.28-.94q1.05-.93 1.17-.81l.81.11q.12 0 .47-.35.47-.23.58-.23.47 0 .58.7.12.7 1.17.82h.35q.23-.47.23-.7h.47l3.38.7q.58 0 .7.46l.35.82q1.63-.93 1.39-.93.35.23 1.17.81l1.4.58q.46.35.46.82 0 .35-.11.7l-.24.58q0 .7 1.87.58h1.51q0 .12.06.41t.17.64q.24.12.41.35.18.23.41.47 1.05 1.4 1.05 1.75 0 .34-.23.58l.11.23q.12.23.12.47l-.82 1.16q0 .93 1.87 1.4l-.12.23q.23.7.23 1.52l.35.46v.82l.24.47-.12 3.14q-.47.47-.82 1.17 0 .11.24.69.58.82.35 2.1l-.7 2.22v.69q0 .47-.12 1.05-.23.94-.81 2.68l-.7.7q.23 1.17-.12 1.52-.35.46-.35.58-.12.7.12 1.4l-1.28 1.39q0 .24-.12.47-.23 0-.93.23-.24.24-.47 1.52-.12.46-.93.81-.47.12-.64.3-.18.17-.29.29-.12.23-.7 1.28-.12.11-3.5 1.51l-1.51.12-1.98.58q-.24-.11-.93-.35l-.7.12q-.35.12-.59.12l-1.51-.47-1.75-.35h-.7q-.93 0-1.86.93l.12 2.45q-.12.23-.7.81.23.82.23 1.46v1.11q0 .81-.12 1.05l.24 1.86q-.47.58-.47.81l.35 2.8q-.7.47-.7 1.4t.23 1.05l.24.11q-.35 7.69-1.05 9.91.23.46.58.93m-6.29-65.71.58.23q.35-.35.23-.46l-.69-.12Zm-.93 1.28h.46l.24-.23q0-.58-.35-1.4-.47.47-.47.93Zm11.07-.35q.34.12.69-.35-.23-.23-.58-.11-.11.11-.11.46m8.97 3.15q.11-.23-.12-.47-.23-.23-.47 0 0 .47.59.47m-10.96 2.79h.7l.12-.23q-.12-.35-.47-.35-.23.47-.35.58m-1.16 21.44.47.23.69-.23.47-.23q.23.11.93.11l1.17-.11q.7 0 .81.35.7-.24.94-.24l.93.24q.23 0 .7-.35.35-.35.46-.35l.35.23q.23 0 .93-.7.7-.93 1.05-1.05.47-2.44.35-2.56l.23-1.98q.35-.7.7-1.75l-.11-1.51q-.12-.82-.18-1.34-.06-.53-.06-.88.59-.34 1.05-1.04 0-.47-.7-.94l-.93-.69q.12-.35.12-.82 0-1.17-1.05-1.52.12 0 .12-.11 0-.35-.94-1.28l-1.04-1.17q-.24 0-.35-.11-.35.34-.35.69h-1.05q-.35-.11-.93-.11-2.8 0-2.8 1.05l.47.93q0 .23-.82.93.7 1.17.7 1.75-.12 1.16-1.28 1.28.23.7.58 1.05.12.46.12 1.22v1.69l-.24.35v1.17l.12.46q.12.35.12.82 0 .23-.35.11.58.59-.24 1.17l.35.7q-.93.7-.93 1.05l.24.46.34.82q-1.04 1.16-1.04 1.75Zm-9.32-17.36q.35 0 .35-.7-.23 0-.47.24-.11.11.12.46m26.56 1.75q.12-.12.12-.35 0-.35-.47-.35-.11.35.35.7m-23.07 1.75q.35-.24.35-.7-.23-.12-.46.11-.12.12.11.59m25.75.46.23-.11q.12 0 .24-.12l-.24-.35q-.11.12-.11.23 0 .12-.12.35m-1.98 2.1v.35q.12-.12.58-.35-.11-.12-.58 0m3.38 4.19.23-.35q-.11-.11-.11-.69-.35-.7-1.17-.7h-.23q-.47 0-.93.46v.24q.81.11 2.21 1.04m-29.71 8.28q.12-.24-.12-.47-.11-.23-.46.12 0 .35.58.35m8.97 1.28q.35.11.58-.12.12-.12-.11-.58-.23 0-.47.7m15.15 0q.35.11.7-.35-.12-.12-.35-.12-.35 0-.35.47m-10.72 1.28h.23l-.23-.35-.12.12Zm1.16 1.4.94.23.11-.58-.23-.24-.58-.11-.35.35q.11.11.11.35m-10.48 3.73q.23 0 .35-.12v-.58l-.7-.35q.35-.12 0-1.17.12-.23.12-.93l-1.64.47v.58q-.11.23.76 1.16.88.94 1.11.94m12.23.11.35-.46-.58-.12-.23.47q.11.11.46.11m1.05-.58.47.47.35-.47Zm-5.59 1.28q.46.12.7-.12l-.24-.23q-.58.23-.46.35m-8.86 8.86.7.23-.35-.35q-.23 0-.35.12m.7 2.09q.12-.23-.11-.46-.12-.12-.59.11 0 .35.7.35m2.8.12q.12-.12.12-.58h-.47q.12.11.35.58m-7.57 7.46q.11-.12.29-.24.17-.11.29-.23l-.7-.35-.23.23q.23.47.35.59m-2.33-.12q.23.23.46 0l-.11-.35q-.12 0-.35.35m6.52 6.76q.12-.24-.12-.47-.11-.12-.58.12 0 .35.7.35m31.46 4.55q-.82 0-1.29-.23 0-1.4.35-3.96.59-.24.7-.94v-1.28q0-.58.06-1.57t.06-2.16q.58-.23.58-.81v-1.17l-.23-.46v-2.22q-.23-.58-.12-1.28l.12-.81q0-.24.06-.47t.06-.35q.11-.12.23-.23.12-.12.23-.35.24-.7.24-1.17 0-.11-.35-.58-.35-.35-.35-.58 0 .11.46-.82.35-.58.35-1.28l2.1-1.86q-.35-.12-.7-.47l-.12-.81q0-.35-.35-.7-.46-.35-.46-.7v-1.34q0-.53.11-1.11.12-.12.12-.35t.12-.58l-.35-1.17q.23-.23.41-.75.17-.53.4-1.11v-.23q0-.24-.23-1.17v-.11q0-.24.06-.53t.06-.76l.11-1.28q.12-1.28.18-1.86t.06-.35q0-1.52-.12-1.4.12-.23.23-.47.12-.23.24-.69l.11-1.52q.35-.35.7-1.4-.23-.58-.46-1.74 0-.12.34-.47.35-.35.35-.47l-.58-.7v-.58q-.11-.7.12-1.4.46-.23.58-.7v-1.28q0-.58-.12-1.39l-.23-.7q-.12-.59.23-.94l.7-.46q-.11-.24-.11-.76v-1.11q0-.23.11-.46.12-.24.24-.7l.23-.93-.23-.47q-.35-.35-.35-.47 0-.81.46-1.39.47-.59.47-1.17l-.58-1.05v-.46q0-.24.11-.59l.24-.46q.11-.23.23-.7l-.23-2.8q0-.93.69-1.05.59 0 1.05.35.47.47.59.47l3.02-1.05.94.12.81.23.58-.23.47-.23h1.75q0 .11.35.23.35.11.58.11l1.63-.34q.23-.24.58 0l.47.11q.23 0 1.17-.58l.58.12.11 2.33q-.23.7-.46 1.04-.23.47-.23.7v.47q-.47.12-.47 1.05l-.47.11q-.7-.81-1.28-1.04v.23q0 .23.47.81.46.59.46.94l-.11.11q-.24.24-.24.7l1.4-.11q0-.24.06-.53t.18-.76h.34q.24.47 1.05 1.4l.12.7.23.23q.12.12.24.35 0 .12-.24.35-.23.47-.23.59l.93 1.28q.82 1.16.82 1.4 0 .34-.7.69l-.82.47v.23l1.28.59q.12.35.35 1.28.24.11.7.81l-.35.82q-.35.81-.35.93l1.4 1.86-.58.82q.12.12.81.58v1.28q.24.35.35 1.05v.24q0 .69-.35 1.39l.82.47.7 2.33-.35.93q.23.24.35.58v.59q0 .81 1.05 1.51l-1.28 1.28q-.94.94-.94 1.28 0 .59 1.64.82 1.63.23 1.74 1.17 0 .34-.35.69.35 1.17.35 1.87l-.17.35q-.18.35-.18.46l1.05 2.1q0 .23-.35.82l.7.7q0 .69.12 1.16.23.23.58.7t.35 1.28q.12.12-.23.82-.35.81-.35 1.05 0 .11.81 1.28 0 .11.06.4.06.3.18.65.23.11.46.4.24.29.47.64 0 .47-.47.59l-.7.35v.93q.24.11.53.23t.75.35q.24.23.24 1.51l-.24.35q0 .82.7 1.4l.94.35-.59.82q.12.11.24.23.11.12.23.35v.7h-.82q-.11.12-.05.12.05 0-.06.11l-.24.24q.7.58 1.52 1.63l.58 2.21v1.63q.47.7.82 2.1l-.12.35q-1.05.7-1.98.7l-.93-.35-1.52.23q-.58.12-.93.23-.35.12-.46.12l-.59-.12q-.35-.11-.46-.06-.12.06-.24.06-.23.12-.64.24-.41.11-.87.11h-1.28q-.24 0-.59.12-.23.23-.81.46-1.05 0-1.17-1.51 0-.12.94-1.75.46-.81.7-1.28.23-.46.34-.7l-1.04.35q-.82.35-1.29.35h-.11l-.35-1.98-.58-1.28q0-.82.93-1.52-.12 0-.58-.58-.47-.46-.59-1.05-.11-.23-.35-1.39l-.35-.35v-.82l.24-.47q-.7-1.28-2.22-1.28l-.58.24-.7-.12q-.35-.12-.7-.12l-1.39.24q-.7.11-1 .23-.29.12-.4.12-.12.11-.59-.12-.46-.23-.58-.23l-.46.23q-.7.23-.82.23l-.12.35q.12 0 .24.06.11.06.35.17v.47l-.59-.23q-.35.35-.35.58.47.35.82 1.17l-.35.93q-.12.46-.23.87-.12.41-.24.64.12.35.12 1.63-.7 2.92-.7 2.68 0 .12.12.41.11.29.23.76l.23 1.16-.35.58q-.34.47-.34.82v.23q0 .47.34 1.17v.23q0 .58-1.16.58l-.93-.11-1.05-.24q-.23.12-.58.24-.35.11-.82.11h-.93l-3.96.7q-.35.12-.7.12Zm15.72-67.22q.12-.24-.11-.47-.12-.12-.58.12.23.35.69.35m5.6 12.11q.81 0 1.05-.58-.12.12-.24-.7l-.7.12q-.35 0-.58.35-.12.11.12.58.23.23.35.23m-13.63 8.97q0-.11-.35-.46l-.24.23q.12.12.29.12.18 0 .3.11m8.15 19.11 1.63-.58q.35-.12.82-.82l-.24-3.38q-.93-.58-.69-3.37l-.35-.35-.47-2.1q0 .12.35-.93l-.7-.59 1.05-.46-.93-.47q0-.58-.35-1.4-.24-.58-.35-.99-.12-.4-.23-.75 0-1.4.69-2.1l-1.04-.23-1.05.35v.23q0 .46-.7.81 0 .94-.47 1.05 0 .47.06 1.05t.17 1.4q0 .12-.34.7l.11.58q0 .12.06.29.06.18.06.41 0 .35-.06.7t-.06.81q-.11.7-.11 1.23v.87l.11 1.87q-.11.81-1.05 1.39l-1.39.94q-.47.35-.7.64-.24.29-.35.52h1.16q.12-.12.53-.41.4-.29.52-.29h.12q.46 0 .7.93.11 1.29.35 1.52 3.02.93 3.14.93m-7.92-17.36q.12-.23-.12-.46-.11 0-.58.23.23.35.7.23m-1.52 12.47 1.29-.12v-.58l-.35-.47-.7.24-1.17-.24q.24.24-.58.47-.82.11-.35.35h.7q.58.35 1.16.35m19.69 8.85.24-.11q.11 0 .11-.06t.12-.06l-.23-.35q0 .35-.24.58m-.35 3.38h.59q-.12-.23-.12-.82.47-.11.82-.81-.24 0-.65-.06-.4-.06-.99-.17-.46.93-.64 1.04-.17.12-.17.35v.35l.81-.58.24.23Zm-3.84.7q.23 0 .47-.23.23-.24-.12-.47-.35 0-.35.7m6.17 6.76q0-.24-.23-.47t-.47.23q0 .35.7.24m-26.56 6.75v.7l.93-.35q1.05-.35.35-.81h-.35q-.46 0-.93.46m2.45 3.03q.11-.23-.12-.46-.12-.12-.58.11.23.35.7.35m67.81 3.27q-1.05-.24-1.51-.94 0 .12-.35.35-.35.12-.64.18t-.53.06l-1.16-.7-.82-.59q-2.56.82-3.03.82-.35 0-1.51-1.17l.23-.69v-1.17q-.11-.35-.11-1.63l.11-1.75q-.11-.11-.11-.58 0-.23.05-.53.06-.29.18-.64-.23-1.98-.35-3.2t-.12-1.57l.59-1.17q-1.29-.93-1.29-1.4 0-.35.94-1.04-.24 0-.35-.47-.12-.47-.35-.47.11-.35.11-1.51l-.11-1.52.81-.46q-.23-.58-.58-.82v-.81q-.7-1.4-.7-1.52 0-.11.35-.58.35-.35.35-.58l-.12-.47q-.23-.46-.23-.58l.23-2.33q-.23-.23-.35-.58v-1.17q0-.11-.11-.23-.24-.23-.12-.35 0-.93 1.05-2.45-.12-.23-1.05-.46-.58 0-.58-.59v-.35h-.35l.12.59v.06q0 .05-.12.17-.7 0-.82.82 0 .23-.35.58l.12.58q-.12.12-.35.58.35.7 0 1.28-.81 1.4-.93 1.29l-.12-.12H861q-.7-.23-.7 1.75v1.98q.12.23.23.58.12.35.24.82l-.12 1.98h-.47q-.23-.7-.46-.82h-.35l-.23.12q.93 1.63.93 1.98-.24.93-.7.81-.23-.23-.53-.4-.29-.18-.64-.3-.35 0-.35.12t.7.7q.12.82.93 1.05l-.11 1.98-1.28-.12q.11.93.11 1.46v.64l-.11.35q0 .12-.12.17-.12.06-.12.18l.24 1.05q.11.46.11.75v.41q-.11.12-.29.41-.17.29-.41.87l-.46 1.4q-.35.82-1.17 1.28 0 .7.35 1.29.35.58.24 1.28-.12.23-.35.75-.24.53-.47 1.23-.12.11 0 1.4-.35.69-1.16.58l-.82-.35q-.47-.23-.82-.23l-.81.23-1.05.23q-.12-.12-.41-.23-.29-.12-.64-.12h-1.16q-.12 0-.41-.11-.29-.12-.76-.24l-1.16-.23q-.12 0-.59.23-.46.35-.58.24-.35 0-.7-1.05-.35-.24-.35-.59l.35-1.16v-.35q0-.58-.35-.93l.47-.24h.12v.24q.23-.24.34-.7h-.46q-.47 0-.47-1.17v-1.39q0-1.4-.23-1.17 1.05-.47 1.16-.81 0-.35-1.28-1.29l.24-.58-.24-.46q-.11-.82-.46-1.29.23-1.98.35-3.32.11-1.34.11-1.8l-.46-1.87q0-.23.46-.7l.47-.46q-.12.11-.58-1.17.23-.23 0-.81-.12-.24-.35-.53-.24-.29-.47-.75.12-.24.12-.82l-.12-.35q0-.12-.12-.17-.11-.06-.11-.18l.11-2.45v-.46q0-.35-.11-.82l.23-.7q1.17-.69 1.17-1.39t-1.75-2.22q-.12-.58-.12-1.28v-2.56q0-.82-.23-1.05.23-.47.23-1.05-.35-.58-.7-1.51.12-.35.12-.94v-1.39q-.12-.82-.23-.94.23-.35.4-.81.18-.47.41-1.05 1.05-.58 1.28-1.28v-.35q0-.7-.35-1.05-.58.47-.81 2.1h-.12q-.11 0-.17.06-.06.05-.18.05-.23 0-.58-.58.47-1.51.47-1.98 0-.23-.35-.58l.11-1.63q-.35-.58-.7-1.87l.12-2.79q0-.24-.12-.59l-.11-.46-.24-3.85q0-.46.35-1.28.12-.11.35-.35.24-.23.7-.46-.11-.24-1.05-.35l-.35-.24q-.11-1.28-.69-3.49.46-.47.93-.35 0-.12.23-.35-.7-.58-1.05-1.75l.12-1.63q.23.12.64.29.41.18.87.41.12-.12.35-.12.24 0 .59-.11l.93.46q.23-.11.64-.23t.87-.23l1.17.35h.23q.58 0 1.05-.35l.46.46q.24.24.59.47.23 0 .81-.58l.35.11v.82q-.11.47.35.58.47 0 .58-.35.12-.23 0-.64l-.11-.41.58.12.82.35h.81l.23.47-.35 4.31q-.58.35-1.28 1.28l.59.93q.46.82.46.93-.11.7-.93.7h-.58q-.35 0-.7-.12-.12.12-.12.59.58.58.93.7.47 0 .94-.47l.58.82.46.69-.35.82q-.11.47 0 1.4 0 .23-.11.35-.58 0-.58.7t.23 1.16q-.58.47-.58.82 0 .7.46.35h.47l.46 1.51q-.23.47-.46.76t-.47.52l-.23 2.57q1.05.58.93 1.28 0 .11-.23.35-.35.35-.35.58l.23.82q.12.34.23.58.12.23.12.35l.47.35q0 .23-.06.58t-.06.93l-.23 3.26v.12q0 .58.35 2.33l-.35.47q-.12.11-.12.35h.18q.05 0 .17.11.7 0 1.86-1.86-.11-.12.12-.7.23-.7.7-.58 0-.24-.35-.35-.12-.24-.12-1.17l1.05-3.61q.12-.35.12-1.63l.35-.35v-1.17q.12-.11.12-.46l.46-.58q0-.47.06-1.11t.17-1.46q.24-1.28.94-1.28.7.23 1.04.47l.24-.12q0-.46-.35-.58-.47 0-.7-.23-.12-.24-.18-.53-.05-.29-.17-.76l.82-.58q.23-.7.23-1.05l.23-.93-.23-1.05q-.23-.93-.12-1.05 0-.46.47-.93l-.24-1.05q0-.23 1.29-1.16-.7-1.28-.7-1.17l.23-1.28q.7-.58.7-1.51v-.82q.12-.11.23-.23.12-.12.24-.35l.23-1.4q.12-1.16 1.16-1.16.12.11.82.46t.81.35q.35 0 .82-.7l.35.12.23.23q.12.12.35.23.12-.11.82-.11.35.81.7.81.7 0 .81-.11.12-.12-.11-.12h.23l.12.12q.34.35.58-.35.58.23.81.58l.24 1.98q.11-.12.7-2.21.11-.12.34-.12.12 0 1.64.93l-.12.24q-.12.23-.35.58.12.23.12 1.28h-.24q.12.12.12.47l-.12.35v1.28l.47.46v1.17l.23.23q.12.12.12.47-.23.23-.35 1.16-.35 1.05-.47 1.17l.47 1.05v.4q0 .29-.12.88l.24.35q.11.23.11.46-.11.12-.23.24-.12.11-.35.35v1.39q.35.47.7 1.4l-.47 2.8.35.46q.24.47.12 1.17.12.58.23.58l-.81 1.52.17.17q.18.18.41.64l-.23 1.05q-.35-.35-.7-.47-.47 4.66-.35 4.9 1.74 1.86 1.74 2.44l-.81 1.29-.7.23v.35q-.12.11.12.11.11-.11.46-.11l1.17.46q0 .59-.82 1.05.12.24.93.47.59 0 .82-.23v-.24q0-.46-.35-.93 1.52-.35 1.63-1.16 0-.47-.23-.47l-.7-.23.93-.35q.82-.59.23-1.75l.35-3.26q.24-.24.47-.64.23-.41.47-.88l.11-2.21v-1.28l.7-1.75q.23-.35.7-.23.12-.7-.12-1.17l-.35-.81q.35-.35.47-.82v-1.4q0-.93.47-1.98l.58-.81q-.23-.35-.35-1.17.23-1.51.35-1.98.47-.47.93-1.28l-.12-1.05-.23-.93q.82-1.75 1.28-3.61v-.24q0-.35-.35-1.04l.24-.35q.7-.59 1.39-.35l.7.23q.47.23.59.23h.11q.47 0 .93-.46.35.35.7.46h.47l.58-.11q.12 0 .58.23.12 0 .59-.23l.46-.12q.35.35 1.17.7l2.1-.23q.11.11.29.11.17 0 .29.12h.76q.29 0 .64-.12l.35.12v.58q0 .12-.24.35l-.7 2.33q-.23.58-.58.7.12.23.12.93l-.35.82q.35.81.11 1.4l-.81.93q-.12.11 0 .23-.12.47-.82.82.24.11.35.69l-.81 1.75q.11.12.81.12-.11.46.12.81l-1.17 1.17q.12.93.24 1.05l-.7 1.05v.52q0 .29-.12.76-.11.11-.29.23-.17.12-.41.35l.59.82h-.82q-.93.23-.58.35-.12 0-.35-.35-.7.46-.82.93 0 .23.24.35.11-.12 1.86-.24.23.7.23.82-.46.47-.58.82-.47.81-.47 2.09l-.7 1.05q.12.12.12.41t.12.76q-.47.11-.82 0l-.58-.24q-.12 0-.35.24-.7.11-.93.93l.81 1.63q.94-.93 1.4-1.63-.46 2.56-.35 2.79l-1.98 4.9q-.46.11-1.16 0-.12.11-.12.58l.35.23.35-.11h.23q.24.7.24.93-.12.12-.41.81-.29.7-.29.82 0 .35.35 1.28v.58q-.24.24-.82.47-.7.47-.7 1.05 0 .35.7.93 0 .23-.35.82-.35.46-.35 1.51-.23 1.05-.7 1.86-.46.12-1.05.94v.81q0 .35.12.82-.7.11-.7.46 0 .24.23.47.24.47.24.58-.24.24-.47.82 0 .46-.06 1.28-.06.81-.17 1.75-1.28.58-1.05 1.51l.12.82q0 .23.05.46.06.24.06.35 0 .59-.11.82l-1.05 1.28q-.82 1.28-.82 1.86.35.24.47.82l-.35 3.03q-.7.7-1.28 1.75l.23.81v.12q0 .58-.47 1.63-1.04.47-1.63.47m-25.51-73.29h-.12Zm-5.94 3.62v.35q.11-.12.58-.35-.12-.12-.58 0m1.39 1.28q.47.23.7-.24-.23-.23-.35-.23-.35 0-.35.47m42.88 1.98q.7-.7.7-1.05v-.12q0-1.05-1.4-1.16-.35-.12-.58.11l-.12.35q0 .35.7.94.7.69.7.93m-23.3.93v.35q.11-.12.58-.35 0-.23-.58 0m1.4 1.28q.35.12.69-.35-.11-.11-.34-.11-.35 0-.35.46m19.68.35q.12-.35-.11-.58-.12-.23-.47.11 0 .24.58.47m-22.01 3.61q.11-.11-.24-.46-.11 0-.35.23l.35.12q.12 0 .18.05Zm0 1.87q.11-.24-.12-.47t-.47 0q0 .23.59.47m2.56-.35.35.46v-.46q-.12-.24-.35 0m-22.72 3.49q.47-.58.47-1.05-.12-.23-.94-.81l-1.04 1.28q.23.12.64.23.4.12.87.35m-2.21 7.92v.12Zm20.73 7.46q.35.12.7-.35-.11-.12-.35-.12-.35 0-.35.47m-3.96 1.86q.24-.23.24-.34 0-.35-.47-.35-.23.35.23.69m8.51 0q.35.12.7-.34-.12-.12-.35-.12-.35 0-.35.46m-17.13 4.08q.35.12.82-.35-.12-.11-.47-.11t-.35.46m23.77.7.58.23q.12 0-.23-.46-.12 0-.35.23m-27.61 1.17q.11-.12.11-.35 0-.35-.46-.35-.12.35.35.7m8.39 0q.35.11.81-.35-.12-.12-.46-.12-.35 0-.35.47m19.8.93q.12-.23-.12-.47-.23-.23-.58 0 .12.24.7.47m2.56-.35.35.46v-.46q-.11-.23-.35 0m-29.35 5.24.35.23q.11-.23 1.04-1.16l.24-.7 1.16-1.16q-.93-.94-.93-1.05 0-.82-.23-1.05l-.7-.12v.93l.35 1.05q0 .35-.82.47v.58q.12 0 .12.23 0 .24-.58 1.75m29.35 5.01q0-.35-.11-.46-.12-.12-.58.11 0 .35.69.35m-4.66 1.63q.24.12.7-.35-.23-.23-.58-.11-.23.23-.12.46m-19.45 1.17-.23.58h.05q.06 0 .18-.12l.23-.11q0-.12-.23-.35m23.77 7.8q.81 0 .81-1.05 0-.81-.7-1.16v-.7q-.35-.58.23-1.16l1.29-.47-.12-.35h-.82l-.35-.23q-.23-.12-.69-.12l-.24.35-.23.23-.47-.23q-.35-.23-.46-.12-.12.24-.12.82 0 1.51.47 1.98l.58.12.23.46q.12.12 0 .24-.11.34 0 .81.24.58.59.58m-28.9-3.84q.35.12.58-.12.12-.11-.11-.58-.23 0-.47.7m5.13 7.69q0-.35-.12-.47-.23-.23-.58 0 0 .23.7.47m21.67.23q.11-.23-.12-.47-.12-.11-.58.12 0 .35.7.35m-4.66 1.63q.23.12.7-.35-.12-.11-.35-.11-.35 0-.35.46m43.21 4.66q-.93 0-1.51-.35-.47-.35-1.29-.35l-.11.12h-.23q-.12.12-.82-.23l-.93-.35-.12.11q0 .12-.12.12.24 0-.93-.58-.58 0-1.4-.47l-1.63-1.4q-.23-.11-.64-.23t-.87-.23q-.58-.35-1.46-1.05-.87-.7-1.8-1.87l-.12-.81-.58-.82-.24-1.63q-.11-.46-.4-1.1t-.53-1.46q-.35-.12-.93-.93-.7-1.63-.7-2.22 0-.11.23-.35.24-.35.35-.35-.23-.34-1.16-.93l-.12-1.28q.82-.58 1.05-.58h.82q.35-.12.81-.23.47-.12 1.05-.24.58-.23.93.35.12.47.7.47.12 0 .58-.82l1.05-1.4q1.75.59 2.1.47l1.86-1.28h1.17v1.28l1.05.47-.24 1.74q0 .24.35.59t.35.46q.12.12-.11.59l-.35.58q.23.93 1.05 1.63.23 0 .93.23 0 .47.41.82.4.35.87.11l.23 1.05q.24.59.47.59l.46-.24q.24-.23.47-.23l.58.12q.24 0 .35.11.12.12.24.12.11 0 .46-.35.47-.23.58-.23.12-.12.82.11l.7.24.47-.24.34-.11.7.23q.24-.23.24-.47 0-.93.35-2.44l1.04-.12q.59 0 .7-.47l-.35-.35-.46-.46q-.12-.47-.23-.99-.12-.53-.24-1.11 0-.35.35-.7.35-.11.58-.35l-.46.12q-.58 0-.93-1.17l-.47-1.39q-.35-.24-.58-.59-.47-.46-.47-.93 0-.23.12-.35-.12-.23-.7 0l-.58-1.63q-.12 0-.12.12-.23.23-.35.23-.12-.12-.47-.12l-.23-1.04-.81-.35-1.4-1.29q-.12-.23-.41-.34-.29-.12-.76-.35l-.11-.94q-.12-.23-.35-.4-.24-.18-.47-.41h-.58q-.12.11-.58.11-.12.12-.59-.58-.23-.46-.46-.76-.24-.29-.47-.4l-1.86-1.17-.93-.35-.12-1.05-1.98-1.04-.47-.82q-.23-.58-.93-.58h-.12q-.35-.35-.35-.7-1.63-2.68-1.74-2.68l-.7.23h-.12q-.58 0-.7-.81l-.35-1.4q-1.16 0-1.51-2.68l-1.05-.47q-.12-.81-.18-1.16-.05-.35-.05-.24.11-1.04.23-.81-.12-.58-.7-.82-.35 0-.58-.35-.12-1.28 0-2.5.11-1.22.23-2.51 0-.35-.23-1.04l-.35-.82.35-.47v-.46q0-1.17.46-2.57.12 0 .47-.05.35-.06.58-.41l-.7-1.52 1.52-2.91q.93-1.63 1.51-1.63l.7.12q.12 0 .23-.12 0-.12-.23-.93h.7l.7-.93q.23-.24 1.28-.47l.47-1.28h.46q.12.12.24.23.11.12.23.35.81-.35 1.4-1.63l1.05-.82h.17q.18 0 .52-.11l.59.11q.35.12.58.12.35 0 1.16-.81.94-.7 1.05-.7l1.05.58q0 .35.12.58l1.86-.93q.35 0 1.75 1.05.23.35 0 1.63l.35-.12.12-.46q.23-.12.46-.35.23-.24.58-.47 0-.23.35-.7.12.12.3.24.17.11.4.34.47.47.7.47.24-.23.7-.35h.23q1.05 0 2.33.82l1.52 1.16.12.58q-.24 0-.59.35.35.59 1.05.59v.46q.23.12.82-.11.23.7 1.16.7.23 0 .58.58-.11.35 0 .81 1.29 2.33 1.29 2.1v.12q0 .35-.47 1.28-.58 1.4-.58 1.51 0 .47 1.4.7 1.28.23 1.16.47l.58.81q-.11.12-.11.47t.23 1.05q.47 1.05.47 1.51-.24.24-.59.53t-.81.64q-.24.11-.76.23t-1.46.23l-2.56.35q-.23.12-.58.24-.35.11-.7.23l-1.4-.47q-.7.24-1.05 1.28-.46 1.17-.93 1.17-.12 0-.35-.58-.35-.59-.46-.59-.12 0-.47.35l-.7.12-.23-.81q0-.47.35-.82.23-.47.23-.58l-.58-.7q.46-.35.81-1.4-.7 0-1.75-.35 0-.23-.11-.64-.12-.41-.35-.87l-.47-1.29q-.58-.81-2.33-1.28l-1.05.12q-.23 0-.52.06t-.76.17q-.35 0-.93-1.05-.23 0-.23.47l.58 1.16q-1.28 1.05-2.1.94v1.74q-.23.24-.35.47 0 .23.06.58t.18.82q.23 1.05.11 1.4 0 .11-.11.23-.24.23-.24.58 0 .24.35.58l.24.47q0 .12-.82.93-.81.82-.81.93.11 2.22 1.74 2.22h.35q.35 0 .7-.06t.7-.06q.47 0 .93.06.47.06.93.17v1.17q0 .7 1.52 1.98.23 0 .64.06t.87.17l.35.7q.24.12.82.7l.46.93q.24.35.47.35.93-.11 1.17-.23.11 0 0 0 .35 3.03.46 3.03l1.28-1.52h.35l.47 1.29q.12.11.17.11h.06l.7-.23q.47.12.35 1.16l1.17.59q.11 0 .81.93 1.05 0 1.52.81.11.24.23.53.11.29.35.76l.93.46v.58q0 .35.12.94 0 .58.23.81.12 0 .81-.81.59.11.82 1.16.23.93.7.93.23 0 .35-.11.12.35.12.75v.88q0 .35.46.64.47.29.82.17l.46 1.52q.24.58-.35.81.24.24.47.12l-.12.58.59.94.11.93q.35.35.47.58.46.58.58 3.84-.12.35-.12 1.4l-.46.7q.23.47.35 1.75l-.47.47q0 .69-1.28 3.84l-.47-.35q-.35.12-.35.7 0 1.51-.11 1.63l-1.17.7q.12.81 0 1.16l-1.86 1.52-.47.7q-.81.58-1.57 1.1-.76.53-1.57.76-.12 0-.41.06t-.76.17q-.46.59-1.63 1.4l-1.16-.35-.7.35q-.24.24-1.4.24h-1.87q-.46.11-.87.23t-.99.23m-11.42-58.83q.12-.12.82-.35l.93.11.93.24q.94-.24.94-1.05l-.12-.47-1.63.24q-.59 0-1.17.46-.81-.58-1.16-.58.11.23.23.58t.23.82m-2.21-.24q.35.24.58-.46-.23-.23-.46 0-.24.23-.12.46m23.65-.11v.46l.47-.46q0-.12-.47 0m1.51 1.05q.35.11.7-.35-.11-.12-.35-.12-.35 0-.35.47m-19.8 1.28q0-.47-.23-.47-.12-.23-.47.12 0 .35.7.35m-7.92 3.38h-.35q.11.11.17.23t.18.23v-.35Zm15.72 12.46q.24 0 .47-.23t-.23-.47q-.24.24-.24.7m-9.08 0q0-.23-.24-.46-.23-.24-.46.23 0 .35.7.23m16.54 14.8q.23 0 .47-.23 0-.35-.24-.59-.35.24-.23.82m4.89 1.63q0-.23-.23-.47-.35-.23-.58.24.23.35.81.23m1.98 4.43q0-.35-.34-.47-.24 0-.47.23.23.35.81.24m-6.52.35h-.12q.12.11 0 .11Zm-17.71 2.56.47-.35-.24-.23-.11.23q-.12.23-.12.35m4.08 13.16.47-.11q.11-.12.81-.12l1.4-1.63q-.23-.23-.47-.76-.23-.52-.46-1.22v-.35q0-.58.35-.93l-1.17.11.7 2.33q0 .94-.23.7l-.12-.11h-.23q-.23.35-1.28 1.4.23.23.23.69m5.82-3.84q0-.12-.34-.47l-.24.24.24.11q.23.12.34.12m-7.68 1.51q0-.23-.24-.46-.11-.23-.46.11 0 .35.7.35m7.92.24q.11-.24-.12-.47-.12-.23-.58.23.23.35.7.24m42.87 5.11-.81.35-1.87-.35-1.16.24h-1.11q-.64 0-1.22-.12l-1.05-.47h-1.17q-.7-.81-2.21-1.16-1.52-.12-2.1-1.17l-.35-.35q-.35.12-1.16-.11-.47-.58-1.17-1.28l-1.63-1.63q0-.24-.06-.59-.05-.35-.17-.81-.35-.35-.76-.88-.41-.52-.87-1.34.23-.7 0-2.09l-.35-.59v-2.56q0-.81-.12-1.63-.35-.35-.7-1.05l-.23-2.21.23-1.4.12-1.4q0-.11-.23-.58v-1.28q-.12-.35-.35-1.05l.35-3.38-.7-4.89.35-.82q.23-.81.11-1.16l-.35-1.05v-1.81q0-1.1-.11-2.62-.47-.58-.47-1.98-.12-.82 0-1.16.35-.82.47-.94l-.59-.58q-.11-1.16-.11-2.04v-3.14q0-.64.11-1.11.47-1.05.7-1.17.59-.11 1.17-1.28l.12-.11q0-.24-.94-.82-.93-.58-.93-.93.12-.23.23-.47.12-.23.24-.7-.24-.93-.24-1.98.47-.58 1.11-1.63t1.46-2.33v-.7q.11-.35.35-.81.23-.47.46-.93l.7-.47q.58-.35 1.75-1.4l1.4-1.28h.23q.23 0 .7-.12.23-.23.23-.58.35.12.64.23.29.12.53 0l.46-.11q1.98-1.4 2.33-1.4l.59.23.05.06q.06.06.18.06 1.63 0 1.51-.82.59-.35.94-.35.46.24.58.7 0 .12.58.12.23-.23.64-.41.41-.17.88-.29.46.12.93.29.46.18 1.05.29l.93-.11h.35q.35 0 .64.05.29.06.64.18.12.58.81 1.05h.35q.7 0 1.75.35.12.11.23.41.12.29.24.64v.7l.23.11q.47-.46 1.05-.46h.12q.69 0 1.74 1.39.12.12.24.53.11.41.23.99l.58.35q.12 0 .23.58.24.12.94.82l.81.35q0 .58-.46 1.16-.47.82-.47 1.28v.35q.23.93 1.98 2.21l.7 1.64-.12.4q-.11.41-.35 1.23 0 .35.12.46-.35 1.87-.35 2.45l.58 1.28q0 .35-.81.82-.82.46-.82.7v.11q.58.24 1.11.64.52.41.99.88 0 .11-.23.58l-.24.47q.12.34.12 1.51-.12.58-.12.47v.11l.12 2.1v.12l-.12.46q.47.7.82 2.1v.23q0 .35-.35.93l-.35.7v.35q0 .93.35 3.03l-.47.12q-.35 0-.35.23l.59.58q0 1.17.58 1.4.46.35.46 1.05-.23.58 0 1.86-.11.7-.81.7-.23 0-.35-.11-.12-.12-.35-.12-.47.23-.82.58.59.35.82.35.35 0 .82-.35.35.12.35.94l.11 1.16q.35.23.47.82 0 .58-.47 1.04l.23.24.35.46-.23.59q-.12.35-.12.58v.35l-.46.35q.93 1.63.93 2.21l-.12.35q0 .12-.11.18-.12.05-.12.17.12.23.12.64v.87q-.24.12-.7.82l.23 2.45v.46q0 .93-.35 1.28l-.35.35-.11 1.17q-.94 1.28-.94 1.16 0 .12.35.35-.11.12-.23.18t-.23.29l-.12 1.28q-.12.12-1.51 1.4-.7.46-.82 1.4-.93.58-1.51.81.11-.11-.24-.11l-1.51 2.21q-.23.12-.53.12-.29 0-.75.11l-.93.58q-.24 0-.53.06t-.76.18l-2.09 1.05q-.24 0-.35-.12-.12-.12-.47-.12m1.52-65.36v.35l.46-.35q0-.11-.46 0m1.51 1.05q.35.12.7-.35-.12-.11-.47-.11-.23 0-.23.46m-6.17 2.68.58-.11-.23-.47q-.59.23-.35.58m-.59 51.5q.24 0 1.4-.7.58.58.82.58.81-.12.81-.46v-.82q.12-.35 1.17-.93.23.11.35 1.05h.58l.23-.24.7-1.63-.35-.93-.35-.93.12-.58q0-.12.06-.18t.06-.17q-.12-.35-.12-1.64.12-1.39.23-1.28-.23-.93-.35-1.69-.11-.75-.11-1.22 0-.12.93-1.05.81-.7.81-.81l-.81-.94.23-2.21.47-.93q-.12-.12-.94-.47-.69-.35-.69-.58v-.12q-.59-1.51-.59-2.33l.35-1.63.24-1.4-.35-.69q.11-.82 0-2.22-.47-.46-.59-.81l.24-.82.23-.7q-.12-.23-.23-.46-.12-.24-.24-.59l.35-2.44.59-.24q.35-.23.35-.58-.47-.12-1.17-.7-.58-.81-.58-1.28l.46-.93.35-.93q-.23-.12-.7-.82l.59-1.63q-.24-.23-.47-.64t-.47-.87q0-.24.47-.7-.12-.35-.12-1.17l.24-.46q.23-.24.23-.47l-.58-.82-.12-1.98q0-.23-.35-.58-.23-.12-.52-.35t-.76-.46l-.7-1.29q.12.12-2.56.24h-.12q-.35 0-1.63-.94-1.63-.93-2.21-1.04-.35 0-.7.7-.23.69-.12.81 0 .35.82 1.17l.81.81-.35 1.52-.46.93v.35q0 .23-.12.46-.12.12-.23.24-.12.11-.24.23 0 .12-.05.41-.06.29-.18.75l-.23.82q0 .23.35.58t.35.59l-.12 1.39q.12.24.29.7.18.47.29 1.05v.82q0 .35-.11.81-.12.35.11.58l.24.12q-.47.23-.24.82.35 1.28.24 1.51l-.35.93q.11.47.11.99 0 .53.12 1.23-.35.35-.7 1.05l1.17.69q.23.35.35 1.17 0 .81-.47 1.75-.35.11-.7.7.47.23.82 1.04l-.47 1.75q.12.23.23.58.12.35.24.82l-.12.35q-.23.23-.23.35-.12.46-.18 1.11-.06.64-.06 1.22.24.12.35.7 0 .35.06.87.06.53.18 1.11l.7.7q.23.23.23.93l-1.05.47q-.58.23-.58 1.04l1.51 1.52q.12.12.23.12h-.11l-.12-.12h-.46q.46 0 .46.7-.11.46-.29.93-.17.47-.41 1.05l.59.58q.46.47.46.7l-.35.58q-.35.47-.35.7l.58.93q.59.94.59 1.05 0 .47-.7.82v.46q0 1.17.81 1.05l.47-.11h.23q.82 0 1.28.46.47.47.7.47m-14.21-50.45q.35.12.7-.46-.12-.12-.35-.12-.35 0-.35.58m4.78 1.17q.35.11.7-.47-.35-.23-.59 0-.11.12-.11.47m-.94 2.21-1.28 1.4h.47q.35 0 .93-.12.58 0 .58-.46l-.23-.82Zm19.46 3.26.58.12q.12-.12.12-.47-.23-.23-.58-.23Zm.12 7.81 1.51-1.05q-.35-.23-.35-.47 0-.81-.58-1.28l-.47.12q-.11.11 0 .7-.11.35-.35.75-.23.41-.46.99.46.24.7.24m-24.82 6.76.93.81q.12-.47-.11-1.16Zm1.05 3.72v.24q.58-.24 1.17-.82-.47-.47-.82-.47v.24q0 .23-.35.81m28.78 2.33-.59.94 1.17-.35v-.47Zm1.63 1.52q.46.11.93-.35l-.7-.12q-.23.23-.23.47m-2.22.46h.35v-.23h-.35Zm-27.02 4.78.69.47.12-.35Zm-.59 3.15v.35l.59-.24Zm22.49 3.72q.23 0-.35-.35l-.23.24q.11.11.58.11m-18.64 2.33h.35q.58 0 1.39-.58v-.46q-.58-.7-.93-.94l-1.05 1.52q0 .23.24.46m21.78-.69-.11-.59q-.24 0-.35.12l.17.23q.18.24.29.24m-2.91.23q0-.23-.23-.47-.12-.23-.47.12.24.35.7.35m-22.02.7q.7.46 1.05-.47-.7.23-1.05.47m.12 4.66q-.35-.58-.35-.82l-.47.12.12.46q.23.24.7.24m.46-.58v.46l.59-.12q.11-.11-.12-.58Zm23.31 2.44.58.35q.58-.93.46-1.16h-.58Zm-13.52 2.8h.12l-.12-.35h-.23Zm-1.16 5.36h.58q.35-.59.58-.59.58 0 1.05.35l.23-.35-.58-1.16q-.12-.35-.47-.35-.23 0-.58.23-.35.24-.93 1.05-.12.12-.12.47t.24.35m32.62 3.03-.7.23q-.24 0-.35-.12l-.47-.23h-.87q-.53 0-1.11-.12-.11-.11-.11-.58 0 .23.11-.35.12-.58.35-1.98v-.47q0-.58-.12-.93l-.34-1.05.23-.46.23-.58q-.12-.24-.12-1.05l.24-.59v-.93l.35-1.16-.82-.47.58-1.28-.35-.7q.24-.58.7-1.05v-.11q-.58-.47-1.28-1.4l.12-1.4q.35-.35.46-.58 0-.7-.11-.94l-.35-.69q0-.24.35-.94.35-.58.35-.93l-.58-.93q-.35-.35-.47-.7v-1.98q.23-.12.58-.47-.23-.46-.81-.93.23-.23.23-.7 0-.35-.12-.81-.11-.47-.35-.93 1.17-.7 1.63-.47l.35-.12q.12-.23.12-.29v-.06q0-.46-.7-.93h-1.05q0-.12-.06-.17-.05-.06-.05-.18 0-.46.35-1.16l-.12-.82q-.12-.12-.12-1.75v-1.28q0-.7-.11-1.51.7 0 .93-.24-.23-.11-.47-.93v-.23q0-.35-.46-.93v-1.87h.23q.35 0 .87-.29.53-.29.53-.41 0-.58-2.1-.34.58-.94.35-1.4l-.35-.7q0-.35.47-.7l.23-.58v-.47l-.82-3.15q0-.69 1.05-1.86 0-.23-.23-.47.58-.23.81-.46v-.23q-.46-.24-.81-.24-.7-1.05-.7-1.51 0-.23.23-.47.12-.11.12-.46l-.12-2.92q-.35-.23-.58-.93l.58-1.4q-.23-3.03-.4-4.72-.18-1.68-.18-2.03t-.23-1.29l-.24-.93.12-.81q.23-.24.7-.35h.82q0-.12.46-.24.23 0 .47 1.29 0 .58.58.58.7 0 .47-1.4l1.63-.35q.35.35 1.05.7.58 0 .58-.58v-.35l.93-.12.7.23h1.63v-.11.23q0 .7.82 1.05h.58q.23.35.58.58h.35q.12 0 .12-.23-.47-.7-.59-1.4v-.47l.24-.23q.46.23.58.58l1.17-.46q.34 0 .81.11l1.17.12.35 1.28q.58.47 1.28 1.4-.12-.12-.24.93-.35.12-.35.59 0 .23.12.81t.35 1.4l.58 1.16v.59q.59 1.51.59 3.96 0 1.98.81 2.68 0 .93.82 3.84l.58 1.17q-.47.7-.82 2.09.12.24.12.59v.58q.12.47.17.87.06.41.06.76t.06.7.41.7q.58.7.7 3.96.58.23.7.58-.12.47.23.82.7.35.7.46v.82q.46.81.64 1.22l.17.41q.7 0 .82-1.05.23-1.05.35-1.05.35.24.81.47.47 0 .47-.82 0-.35-.47-.93-.34-.35-.34-1.4 0-.23.05-.58.06-.35.18-.81.23-.47.29-.88t.17-.76l.35-.46v-.58q0-.35-.11-.82l-.12-1.51q.35 0 .93-.47 0-.12-.11-.12-.24-.23-.47-.23-.35-.58-.35-.82 0-.23.35-.93l.35-1.05q.7-.58.7-.81-.23-.23-.7-.93 0-.47.35-.82l.35-.58q-.12-.35 0-1.17 0-.23.7-1.05l-.7-.69.47-.82q1.51-1.51 1.51-2.1 0-.35-.47-.93-.58-.58-.58-1.63v-.7q.58-.93 1.11-1.75.52-.81.76-1.63.11-.46.17-.58t.06 0q0-.47-.23-.47-.12 0-.59.47-.46-.23-.7-1.4v-.93q.12-.47.29-.82.18-.35.3-.69l1.04-.24q.94 0 1.4.35l.47.35q.35-.12 1.05-.58l.81-.23 1.87.58v1.28q.23.7.7.7.69-.23.69-.7l-.11-.58q-.12-.24-.12-.59 0-.23.12-.34l.93-.35q.23-.47.7-.59l1.86.47q.24 0 .35.12l.35.23q.24-.23.7-.35l3.03-.12q.12.24.29.53.18.29.29.64l-.35.58q-.11.47-.17.82t-.06.7q0 .34.47.81-.12.12-.18.23-.06.12-.29.35l-.23.7v1.28l.11.12-.11.7q.11.23.17.93t.06 1.17q0 .11.06.46t.17.82l.24 1.05-.35 1.28q-.35.81-.47 1.4.23.35.47.69.23.35.58.82-.35-.47-.58-.82-.24-.34-.47-.58v-.11q-1.75-2.68-3.14-4.61-1.4-1.92-2.45-3.2l-.12.23q.93 1.52 2.62 3.85t3.91 5.36q-.47-.24-.59-.59-.81.12-.69.7l.46.7q-.12.12 0 .7.23.12.41.35.17.23.41.47l-.47.58q-.12.23-.17.35-.06.12-.06.23 0 .47.81.47-.35 1.75-.46 1.51l.93.93q0 .24-.06.59t-.17.81q-.24.24-.59.64-.35.41-.81.99l-.47.94q0 .93.35 1.1.35.18.7.29.23-.35.47-.35.46 0 .58.7 0 .24-.82 1.05.24.58.94 1.52l-.94.81q-.7.47-.7.93l.24.47h.35q.46 0 .93-.82h.47l.11.35-.06.35q-.05.35-.17 1.05-.12.82-.18 1.34-.05.53-.05.76-.59.81-.59 1.16-.23-.23-.35-.23-.23 0-.23.58 0 .7.58 3.27.24.58.35 1.16.12.58.24 1.17l.11 1.98q-.23.58-.23.81v.82q0 2.33-.58 2.33 0-.12-.12-.12l.47.7q.11.12.11.35v.35q.35.23.59.81l.23 1.75v.7l-.12 1.17q-.23.23-.58.35-.47.11-.47.58l.12 1.28.47-.12q.58 0 .69.47.24.23 0 .93l-.23.82q.12.11.35.58 0 .35-.12.47v.46q-.11.35-.11.58l.11 3.15q.35.35.47.7l-.35.93q.12.93.12 1.34t.11.18q-.23 1.04-.35 1.16l.24.35q.11.23.17.35t.06.23q0 .93-.35 1.05h-.12.12v-.12l-.93-.35h-1.05q-.23 0-.58.12h-.93l-.47-.12q-.23 0-.47.12l-.46.12-2.1-.47q-.12 0-.47.35-.34.35-.69.35-.47 0-1.64-.81-.11.23-1.16.93-.82 0-.82-.93l.47-5.01v-.59q-.35-.11-.82 0 .59-.46.47-1.16l-.23-.93v-.12q0-.35.7-.7-.24-.35-.47-.81-.12-.35-.17-.65-.06-.29-.06-.52.11-.23.11-1.05l-.35-.7q.7-.11 1.05-.93-.11-.23-.7-.47.12-.58.18-.99.06-.4-.06-.64l-.47-1.51.24-1.17.23-.93-.7-2.33q0-.35.58-.93-.23-.12-.46-.35l-.47-.47q.24-.69.24-2.09 0-.35.11-.47l-.35-.93q0-1.17.35-1.52t.35-.93q0-.93-.7-1.75.35.24.47.12.46 0 .58-.35l-1.05-.35q-.11-.11-.23-.29-.12-.17-.35-.29.23-.35.82-.7 0 .23.23.47 0-.12.23-.35-1.63-.93-1.4-.93-.46 0-.7.58v1.4q-.46.11-.46.69v.7q-.12.12-.35.7l.12 1.63q-.12.12-.35.41-.24.29-.7.76.58.47.81 1.86 0 .47-.11.59-.7.69-.82 1.74-.12.59-.23 1.11-.12.52-.35 1.11l.58.11v1.75l-.58.93q.11.12.23.82.12.35.18.7.05.35-.06.7l-.35.7h-.35l-.7-.35q-.93 2.44-.93 1.98l.93.93q.23.7.23 1.51v1.17l-.41.41q-.29.29-.52.75-.23.47-.23 1.28l.23.24q.12.11.12.35l-.35 2.56q0 .35-.47.82v.35q0 .46-.46.58.58 1.05.69 1.75 0 .23-.23.69-.46.12-1.05.3-.58.17-1.16.4l-1.4-.11-1.4-.24-1.63.47q-.35 0-.47-.12 0-.11-.23-.93-.46-.46-.58-.81l-.47-1.87q.24-.35.59-.35v-.81q.93-.24 1.04-.59-.11-.46-.46-.46-.7.11-.7 1.05h-.7l.23-2.57-.23-.93-.35-.93q0-.82 1.17-.82l.46.24q.47 0 .58-.47-1.04-.46-1.63-.46l-.35.11q0-.11.24-.58-.35-.35-.47-.35l-.82.12q-.11-.12-.11-.94 0-.69.35-1.16l.23-.58q-.23-.24-.52-.47t-.76-.58q-.12-.12-.12-.41t-.11-.76l.46-2.09q-.11-.12-.23-.24-.12-.11-.35-.35l-.23-1.28q-.12-.11-.29-.29-.18-.17-.41-.52.11-.12.11-.35 0-.47-.35-.94v-.46l.35-.12q1.17-.11 1.17-.7 0-.46-1.52-.58-.34-.93-.34-1.63l.23-.35v-.23q-.35-.82-.82-1.05l-.11-.23v-.06q0-.06.11-.18l-.46-.35.93-1.51q0-.58-.7-1.05 0-.12.58-.7l-1.51-.23q-.35-.58-.47-.58-.58.23-.7.46v.58l-.35.35v.47q.12.23.24.58.11.35.23.82 0 .58-.35.93-.47.35-.47.47l1.05 1.74q.12.12.12.41t.12.53q-.12-.12-.24.34-.46.12-.58.59l-.12.58q.47.47.82.47l.23 6.87-.23.35q.12.35.12 1.16 0 .35-.35 1.05l-.24.7q0 .12.06.23.06.12.18.35.23.35 0 1.29.46.58.23 1.86.12 1.28.17 2.1.06.81-.05 1.28.23.35.34.64.12.29.24.52-.24.7-.41 1.46t-.41 1.69l.58.81v.47q-.23.23-.64.47-.4.23-.87.46-.7 0-1.51-.46l-1.17-.59q-.35.35-.7.59-.46.11-.87.17t-.64.06l-1.63-.23q-.12 0-.7.35m28.77-69.44h.47q0-.47-.23-.7Zm-23.88 4.31.47-.23-.24-.35q-.11.11-.11.23t-.12.35m26.45.93.46-.35q0-.11-.46 0-.12.12 0 .35m1.51.82q.35.23.58-.47-.11-.11-.35-.11-.46 0-.23.58m-32.39 2.09q.35.12.59-.11.23-.23-.24-.58-.35.11-.35.69m8.39 2.45q.47-.23.58-.35-.46-.93-.35-1.4.24-.23.47-.52t.47-.64q-.94-.23-1.29-.12-.69 0-.81.12-.58.35-.58.81 0 2.1 1.51 2.1m-2.45 4.66q.12-.23-.11-.46-.12-.12-.58.11.23.35.69.35m-5.12 3.26q0-.23-.23-.46-.12-.24-.47.11 0 .35.7.35m32.74 1.52q0-.12-.35-.47l-.24.24q.12.11.29.11.18 0 .3.12m-37.17.58q.35.23.58-.35-.11-.12-.35-.12-.35 0-.23.47m40.2 1.05v-.47q-.12-.23-.35 0Zm-2.8.23q0-.35-.23-.58-.24 0-.47.23 0 .35.7.35m-25.17 5.25h.59q.23-.24.23-.59-.58.12-.82.59m.12 1.16h1.05l-.23-.35Zm5.48.7q0-.23-.47-.23.35.35.47.23m-10.26 7.57.47.35q.12 0 .23-.12l-.46-.34q-.12 0-.24.11m10.26 2.22h.7v-.82q-.59.58-.82.58.12 0 .12.24m-9.32-.35-.12.81.81-.12q-.11-.58-.69-.69m29.12 4.42q.58-.58.58-1.16v-.35q-.11-.23-.4-.47-.29-.23-.64-.7l-.24 1.29q0 .46.7 1.39m-12.7.94q1.52-.24 1.63-.12l-.11-.93q-.58-.59-1.05-.47-.23.23-.47 1.52m19.81-1.17-.12.12q.12 0 .12-.06Zm-22.37 4.31h.23l-.23-.35h-.12Zm-14.33 2.91q.35.12.7-.35-.35-.35-.58-.11-.24.23-.12.46m-3.73 2.33q.12-.11.12-.35 0-.35-.47-.35-.11.35.35.7m37.05 6.18q.47 0 .7-.23-.58-.94-.23-1.52.23-.23.46-.47.24-.23.47-.58-.47-.11-.82-.17t-.58-.06q-.35 0-.82.23-.58.35-.58 1.05.24 1.75 1.4 1.75m-32.97-.82q.12-.23-.23-.46-.12-.24-.47.11.23.35.7.35m-3.26 9.32q.23-.23 1.16-.35.82 0 .7-.81l-.12-.35-.46-.12-1.05.35q-.12 0-.12-.12h-.23q-.47 0-.47.35 0 .7.59 1.05m77.59 2.69-.93-.35q-1.52-.23-2.74-.29t-2.16-.17l-.93.23-2.79-.7-1.05.35-3.26-.47-1.75.12q-.24 0-.47.12l-.46.11-4.9-.7-.81.24q-.24-.12-.64-.24-.41-.11-.88-.23l-.35.23q-.23-.11-1.16-.11l-.24.11h-2.09q-1.75 0-1.4-1.98l.23-1.51q.12-.82.12-1.34v-.87q.12-.24.47-.64.34-.41 1.16-.99v-.24l-1.16-.23-.12-.47q0-.81.46-1.28.7-.93.82-1.63-.58-.12-.82-.93l-.34-1.28.23-3.15.81.35q.12-.12.12-.7v-.7q-.35-.35-.58-.7l-.12-.23q0-.23.23-.93l.24-.7q0-.47-.47-.82 0-.46.23-1.16l-.23-.35q0-.35.12-.35-.12-.58.11-1.28l.35-.58-.23-1.17q-.12-.58-.23-.87-.12-.29-.12-.41 0-.23.47-.7.46-.47.46-.7l-.23-.7q-.35-.35-.35-.46l.58-1.98q-.58-.24-.23-1.4l.35-1.4q-.12-.58-.18-.93-.05-.35-.05-.58l.23-1.64.58-.81q-.11-.23-.35-.93l.12-1.87q-.35-.7-.35-.81l.93-1.98-.06-.12q-.05-.12-.17-.35 0-.35.06-.87.06-.53.17-1.34l-.23-1.4q.12.12.23-1.75l-.23-.7q-.12-.23-.18-.35-.05-.11-.05-.23.11-.23.23-.47.12-.23.12-.58l.23-3.61.35-8.74q.58-1.4.58-1.98l-.12-.58q0-.23-.11-.35-.12-.12-.12-.23l-.12-1.4q0-.24.47-1.28.47.11 1.05.17t1.16.29q.35.35 1.05.7.12 0 .47-.46.35-.35.58-.35l.7.46q.7.47 2.1.7.23-.47.46-.7l.93-.11q.47-.12.82-.12l.47.35q.23.23.7.11l1.16-.23q.47-.11.7-.11h.35l2.1.58q.23-.12.52-.18t.76-.17l1.05.23q.11.47.7.47.11 0 .58-.35.46-.47.58-.24l.7.24q.23-.24.58-.35l.82.23q.23.12.41.23.17.12.29.12l.58-.12q0 .24.46 1.05.24-.35 0-.93l.94-.35q.23.12.7.35.46.23 1.04.47 0 .23.35.58h.35l.7-.82q.24-.11.64-.11.41 0 .88-.12l.81.12-.23 4.42q-.58.47-.58 1.05l.11.94-.23 5.59q0 .81-1.28.81-.35-.35-.7-.46-.47-.12-1.28-.18-.82-.06-1.87.06-.23 0-.58-.06t-.93-.17l-1.05-.12-1.86.23-1.98-.11q-.24 0-.47-.12l-.47-.12q-.93-.11-1.45-.11h-.64q-.47-.35-.93-.35-.24 0-.82.46-.58.47-.82.47 0 .35-.11.47l.11.58q.12.23.12.52t.12.76q-1.17.47-1.28 3.38l.46.12h.82q.11.11.11.58 0 .46-.46.93l-.58.58q.46 1.05.58 2.22 0 .23-.47 1.04-.46.82-.46 1.4l-.24-.35-.35.24v.35q.24.23.94.23 0 .23.05.52.06.29.18.64.58.94 1.05.94l.81-.35q.12.11.53.4.4.3.52.3-.12-.12.93-.7 1.05.11 1.52-.12.81.82 1.16.82h.47l.81-.35q.12 0 .35-.12.24-.12.47-.23l.7-.24q.35 0 .81.47.59.58.7.58.35-.23 1.05-.35l.06.18q.06.17.06.52 0 .47-.06 1.34-.06.88-.17 2.16l-.24.46q.12.35.12 1.63-.12.24-.23.82-.12.58-.12.81v.24q0 .23.23 1.16v.47q0 .81-.46 1.4-1.17 1.16-1.4 1.16l-1.05-.35q-.23 0-.58.12l-.7.12q-.23-.24-.53-.41-.29-.18-.75-.29-.24.11-.53.17t-.75.18l-1.29-.35q-1.16-.35-1.51-.35l-1.17.23q-.23 0-.58-.82.47-.11.58-.58h.82q.47 0 .93.12l.12-.47v-.23q0-.35-.47-.82-.11 0-.41-.05-.29-.06-.75-.18-.24.23-.24.93-.35-.11-.69.59-.24-.24-.82.34v.82q-.23.23-.47.82-.81.35-.81.93l.23.23q.12.12.12.35v1.17q0 .35-.12.93l.35.46q-.23.7-1.75 2.92v.23q0 .47.35.81.24-.69 1.28-1.51.47.58.47 1.17 0 .11-1.4 1.39l.47.82.46-.12q.47 0 .47.7-.23.23-.58.93-.24.47-.24.94l.35.34q0 .12-.7 1.52l.35.93q0 .58-.81.7.12.12.58.12l.12.35q-.35.35-.47.7.23.69.82.81.58 0 .93.12.93-.12 1.86-.12h1.98q.12.47.59.47.23 0 1.05-1.05.69 0 .93 1.28h.35q0-.35.11-.58.82-.35 2.45-.24l1.4.59q0 .11.93.11.47 0 .58.12l1.52-.35q.35 0 .58-.23.12-.12.82-.12.93.23.93 1.4 0 .47-.35 2.45l-.18.23q-.17.23-.17.46v2.92l-.7.23q.81 1.63.81 2.68 0 .58-.69 1.16l.35 1.52Zm.58-65.01h.12q.7 0 1.16-.81-.35-.47-.58-.47l-1.4.82q.35.46.7.46m-2.68 2.22.58.23q0-.12-.35-.47Zm-17.47 1.86.58-1.28-.58-.23-.47-.35q-.7.46-.7 1.28.7.46 1.17.58m-3.62 8.74.7.12q0-.24-.05-.47-.06-.23-.18-.47h-.81l-.12.47Zm-3.49 8.39-.12.11q0-.23.12-.11m6.17 2.68q.59-.94-.23-1.4-.12.12-.35.7 0 .35.58.7m-2.79 1.28.11-1.75-.34-.35h-.82l-.12.35.35.7q.24.12 0 .7.35 0 .82.35m1.51 3.03v-.59q0-.34.12-.69-.12 0-.47.35 0 .34.35.93m13.98-.24h.12q.23 0 1.16-.23l-.58-.58q-.23-.35-.81.23 0 .47.11.58m-11.88 11.65.58.35q.12-.11-.23-.46-.23 0-.35.11m.35 3.38-.12.7q.24 0 .93-.23l-.34-.93q-.47.11-.47.46m-5.13 2.22.35.93v-.58q0-.35.12-.59-.12-.11-.47.24m.47 3.49q.12-.23-.12-.46-.23-.24-.58 0 .12.23.7.46m-1.17 6.41q.35-.47.12-.93h-.47l-.23.7q.23.23.58.23m17.36 4.89q0-.23-.23-.46-.12-.12-.47.11 0 .35.7.35m.35 2.57 2.1-.35-.35-.82q-.23-.58-.93-.58l-1.05.35q0 .35.06.7t.17.7m40.09 3.14q-.7 0-1.75-.46l.12-.82q-.12.23-.23-1.51 0-.35.35-.7 0-.24-.06-.59t-.18-.81l-.35-1.17q.12-.81.18-1.74.06-.94.17-1.87l-.35-.7v-.81q-.23-.47-.52-.93-.29-.47-.53-.94v-.35q0-.58.35-.93l1.17-.93q-.23-.23-.47-.23h-.11l-.12.11-.93-.7q1.05-1.04.11-1.63.59-.35.7-.81.12-.12-.11-.82-.35-.93-.35-1.05-.12-.81-.18-1.34-.06-.52.06-.75l.35-.7v-.7l.12-.35-.35-.35h-.58q-.24-.23-.24-.7l.35-2.21.35-.35q.12-.12-.46-.59v.12l-.06-.64-.18-1.92q.12-.35.12-1.52-.12-.11-.23-.23-.12-.12-.24-.35l-.23-3.14q0-.24.35-.59-.12-.23-.12-.81l.35-.7v-1.34q0-.76-.11-1.57 0-.47-.82-.82l-.12-.82q.47-2.21.12-2.21h-.23v-.12q0-.11-.12-.23l.35-.93q.35-.7.35-.93-.35-.24-.7-1.05v-1.75q-.12-.12-.12-.29t-.11-.29q-.12-.12.11-.58-.11-.7-.17-1.29-.06-.58-.06-1.04l.12-.47q.11-.23.11-.47l-.23-3.72-.23-1.05q-.12-.47-.23-.64-.12-.18-.12-.29l.23-3.03q-.11-.24-.23-.53t-.35-.76l.23-.81q.24-.58.12-.58l-.35-1.63q.12-.47 0-1.17-.12-.35-.29-.7-.18-.35-.29-.81l.23-.24q.12.12.35.12.58 0 .81-.58h.35l1.05.23.7-.23.7-.12q.7 0 1.52.82.46-.12.93-.94 1.28.7 1.28.82l1.4-.58q.11 0 .7.58h.35q.11-.12.29-.35.17-.23.4-.47.47-.23.82-.23h.12q.93 0 .93 1.17.23.93 0 2.21l-.35.82q.12.23.12.81-.24.7-.24.93l.82 1.98q0 .59-.12.94l.12 2.91q-.12.46-.12 1.05 0 .58-.12 1.16l.35.58q-.11.35-.11 1.4.11.24.23.53t.23.75l-.11 1.52q-.12.11-.18.23t-.29.23q0 .12.12.12.23.23.23.47 0 .58-.12 1.05-.11.46.12.81.23.12.47.41.23.29.46.64v.12q0 .11-.06.17-.05.06-.17.64.12.23.12 1.17 0 .35-.47.81.23.93.12 1.28l-.12.47q0 .93.93.7l3.61-.58q.12 0 .59.35.46.35.58.23 1.63-.23 2.91-1.17.82.12 1.05-.46v-.12q0-.47-.58-.81-.12-.24-.29-.53-.18-.29-.41-.64l.23-1.63-.06-.18q-.05-.17-.17-.64-.23-.58 0-.93l.46.12q.12 0 .18.06.06.05.17.05.59 0 .59-.46 0-.82-.59-.82l-.81.59v-.59l.35-1.51-.23-.82q1.39-.23 1.39-.58 0-.23-.7-.35-.58 0-1.51-.35l.12-.81.23-.7-.35-1.4q.35-1.75.23-1.87-.11-.58-.17-.99-.06-.4.06-.87-.12-.47-.12-1.05v-1.4q-.47-.46-.47-1.28 0-.81.59-2.33-.24-.23-.47-.46-.23-.24-.47-.59l.47-1.51q0-.23-.7-1.28.35-.35 1.05-.47.58 0 1.05.23.23.35.58.35.58-.23 1.17-.46.58-.23 1.28-.47.46 0 .58.35.12.47.82.47.58 0 1.74-.82.24 0 .47.24v.34q-.35.12-.58.59l.11.58.35.12q.47 0 .35-.47v-.58q.82-.24 1.63-.58.82-.35 1.63-.59.12 0 .82.24-.12.23-.12 1.16.12.23.24.53.11.29.23.75-.12.47-.12 2.22l-.7.46q-.46.35-.46.58.23.12.7-.11.46.11.46.58-.11.12-.23.41t-.23.64l.35.47q.23.34 0 1.16-.12 0 0 .12.35.7.35 1.39 0 1.17-.65 2.04-.64.88-1.57.99l-.35-.11q-.11 0-.17-.06t-.18-.06q-.23.23-.23.47.12.35.35.58l1.63.23q.35 0 .58-.23l-.23.81.23.12.7-.35q.35.47.47.93 0 .47-.06.94-.06.46-.17 1.04.23.47.23 1.05-.12.7-1.28 2.22.58.23 1.39 1.16v.82q.12.23.3.52.17.29.29.76l-.24.7-.23.7.47 1.39v.82q.23.23.35.58l-.12.7q.12.58.12 1.46v1.92l-.24.12-.35-.59v-.11h-.05q-.06 0-.18.11-.7 0-.7.82.24.7 1.63 1.05l-.23.7.58 1.63q-.35.23-.58.58.35.82.35 1.52 0 .81-.7 1.51l.47.23q0 .24.05.59.06.35.18.81l.23.93q0 .59.06 1.11t.06.99q0 1.75-.35 1.75h-.12q-.11 0-.29-.06-.17-.06-.29-.06-.58 0-.58.23 0 .47 1.51 1.52.12.23-.46.47l-.12.23.23.7q.59 1.28.35 1.51-.23.12-.7.12l.24.46q.58.35 1.39 1.29l-.34.46q-.12.23-.12.7t-.12 1.05l.24.81q.23.59-.24.82l-.11.23q.93.12 1.04 1.4.24.58-.11 1.05l-.35.47q0 .46-.35 1.39.46.35.93 1.29 0 .69-.58 1.63l.7.58q-.12.35-.12 1.28l.35 1.05v.23q0 .58-.47 1.05.35.35.82.35 0 .12-.06.41t-.17.64q-.47.7-1.63.7-.47-.47-.82-1.28l.35-.47q-.12-.23-.35-.47-.23-.23-.47-.69h-.69v.34q.11.35.93 1.17l-.82 1.16q-.46.12-1.11.24-.64.11-1.22.23-.11-.12-.41-.23-.29-.12-.64-.24-.11.12-.4.24-.3.11-.65.11h-1.16l-2.56.7q-1.05 0-.94-.7l.12-.58q.12-.35.12-.58-.12-.23-.12-.64v-.88q0-.23.47-.69-.12-.47-.94-.82v-.82q.59-.34.94-2.21h-.12q-.58 0-1.16-.46l-.12-.82q-.12-.23-.18-.35-.05-.12-.05-.23l.23-1.17q.12-.58.12-1.1v-.76l-.12-.23q.12-.12.12-1.4l-.24-4.43q.24-.12.82-.7l-.82-.47q-.11-.58-.23-1.1-.12-.53-.23-.99l.23-.47.23-.46q-.46-.47-.58-1.05l.35-.82h.12q.35 0 .11-1.4-.11-1.28-.46-1.51-.47-.47-.47-1.28v-.24q0-.58.35-1.04-.7 0-1.86-.82-.12.35-.94.93h-.93q-.46 0-1.05-.11l-.7-.47q-.35.35-1.04.7l-.24-.12h-.46l-.59.35q-.46.35-.69.35l-.12-.12h-.12q-.35 0-.58.35l.7 1.05q.23.12 0 1.05 0 .35.35.7-.12-.12-.12 1.05l-.46.58q.35.35.35 1.17v1.39q.23.59.46.7-.58.59-.58.82l.7 1.98q0 .23-.06.52-.06.3-.18.76v.23q0 .35.35.94.12.11.12.58l-.12 1.75q-1.86 1.39-1.86 1.86 0 .35.7.58l1.63.47v.87q0 .76.12 2.27h-1.4q-.23.47-.12.94v.11q0 .35.47.82.35-.23.35-.47h.46q.82 1.75.82 2.33l-.58.82.35.46q.23.35.23.82t-.7.7q.35.35.7 1.05 0 .11-.35.7-.35.46-.58.46l-1.63-.35q-.35.24-1.17.35l-1.05-.11-1.16-.24-1.98.59-1.05-.35q-.47 0-.58.46-.35.35-.82.35m-2.21-66.76q.35.12.7-.34-.12-.12-.47-.12t-.23.46m4.54 2.45q.12-.23-.23-.46-.12-.24-.47.11.23.35.7.35m14.45 3.26.58.94.23-.35q0-.59.58-.82.59-.23.59-.58l-.12-.35v-.12q-.23-.23-.93 0 .23.7 0 .93-.58 0-.93.35m-15.15 10.61.47.34q0-.23-.24-.46 0-.12-.23.12m3.61 5.24q0-.12.06-.18l.06-.06q0-.69-.7-.23 0 .23.58.47m10.72 3.49q-.12 0 .35.35v-.35q-.12-.23-.35 0m1.63 6.18q.12-.12.12-.35 0-.35-.47-.23-.23.23.35.58m-18.64 5.71h.35q.35 0 .35-.24v-.35l-.81-.11-.12.35q0 .11.23.35m20.97 13.28-.58 1.4q1.51-.59 1.28-1.17 0-.47-.7-.23m-2.21 2.1v-.12Zm-14.33 7.33q.81-.11.81-.81 0-1.28-.69-1.28-1.29.23-1.29.81 0 .12.06.35.06.24.29.47.47.46.82.46m21.44 2.45q.23 0 .46-.58-.23-.12-.46.12-.24.23 0 .46m32.85 3.25-.82.35-1.86-.35-1.16.24h-1.11q-.64 0-1.22-.12l-1.05-.47h-1.17q-.7-.81-2.21-1.16-1.52-.12-2.1-1.17l-.35-.35q-.35.12-1.16-.11-.47-.58-1.17-1.28l-1.63-1.63q0-.24-.06-.59t-.17-.81q-.35-.35-.76-.88-.41-.52-.87-1.34.23-.7 0-2.09l-.35-.59v-2.56q0-.81-.12-1.63-.35-.35-.7-1.05l-.23-2.21.23-1.4.12-1.4q0-.11-.24-.58v-1.28q-.11-.35-.34-1.05l.34-3.38-.69-4.89.35-.82q.23-.81.11-1.16l-.35-1.05v-1.81q0-1.1-.11-2.62-.47-.58-.47-1.98-.12-.82 0-1.16.35-.82.47-.94l-.59-.58q-.11-1.16-.11-2.04v-3.14q0-.64.11-1.11.47-1.05.7-1.17.58-.11 1.17-1.28l.11-.11q0-.24-.93-.82t-.93-.93q.12-.23.23-.47.12-.23.24-.7-.24-.93-.24-1.98.47-.58 1.11-1.63t1.46-2.33v-.7q.11-.35.35-.81.23-.47.46-.93l.7-.47q.58-.35 1.75-1.4l1.4-1.28h.23q.23 0 .7-.12.23-.23.23-.58.35.12.64.23.29.12.53 0l.46-.11q1.98-1.4 2.33-1.4l.58.23.06.06q.06.06.18.06 1.63 0 1.51-.82.58-.35.93-.35.47.24.59.7 0 .12.58.12.23-.23.64-.41.41-.17.87-.29.47.12.94.29.46.18 1.04.29l.94-.11h.35q.35 0 .64.05.29.06.64.18.11.58.81 1.05h.35q.7 0 1.75.35.12.11.23.41.12.29.24.64v.7l.23.11q.46-.46 1.05-.46h.11q.7 0 1.75 1.39.12.12.23.53.12.41.24.99l.58.35q.12 0 .23.58.24.12.94.82l.81.35q0 .58-.47 1.16-.46.82-.46 1.28v.35q.23.93 1.98 2.21l.7 1.64-.12.4q-.11.41-.35 1.23 0 .35.12.46-.35 1.87-.35 2.45l.58 1.28q0 .35-.81.82-.82.46-.82.7v.11q.58.24 1.11.64.52.41.99.88 0 .11-.24.58l-.23.47q.12.34.12 1.51-.12.58-.12.47v.11l.12 2.1v.12l-.12.46q.47.7.82 2.1v.23q0 .35-.35.93l-.35.7v.35q0 .93.35 3.03l-.47.12q-.35 0-.35.23l.58.58q0 1.17.59 1.4.46.35.46 1.05-.23.58 0 1.86-.11.7-.81.7-.24 0-.35-.11-.12-.12-.35-.12-.47.23-.82.58.59.35.82.35.35 0 .81-.35.35.12.35.94l.12 1.16q.35.23.47.82 0 .58-.47 1.04l.23.24.35.46-.23.59q-.12.35-.12.58v.35l-.46.35q.93 1.63.93 2.21l-.12.35q0 .12-.11.18-.12.05-.12.17.12.23.12.64v.87q-.24.12-.7.82l.23 2.45v.46q0 .93-.35 1.28l-.35.35-.12 1.17q-.93 1.28-.93 1.16 0 .12.35.35-.11.12-.23.18t-.23.29l-.12 1.28q-.12.12-1.51 1.4-.7.46-.82 1.4-.93.58-1.51.81.11-.11-.24-.11l-1.51 2.21q-.24.12-.53.12t-.75.11l-.94.58q-.23 0-.52.06t-.76.18l-2.09 1.05q-.24 0-.35-.12-.12-.12-.47-.12m1.51-65.36v.35l.47-.35q0-.11-.47 0m1.52 1.05q.35.12.7-.35-.12-.11-.47-.11-.23 0-.23.46m-6.18 2.68.59-.11-.24-.47q-.58.23-.35.58m-.58 51.5q.23 0 1.4-.7.58.58.82.58.81-.12.81-.46v-.82q.12-.35 1.17-.93.23.11.35 1.05h.58l.23-.24.7-1.63-.35-.93-.35-.93.12-.58q0-.12.06-.18.05-.06.05-.17-.11-.35-.11-1.64.11-1.39.23-1.28-.23-.93-.35-1.69-.12-.75-.12-1.22 0-.12.94-1.05.81-.7.81-.81l-.81-.94.23-2.21.47-.93q-.12-.12-.94-.47-.7-.35-.7-.58v-.12q-.58-1.51-.58-2.33l.35-1.63.23-1.4-.35-.69q.12-.82 0-2.22-.46-.46-.58-.81l.24-.82.23-.7q-.12-.23-.23-.46-.12-.24-.24-.59l.35-2.44.58-.24q.35-.23.35-.58-.46-.12-1.16-.7-.58-.81-.58-1.28l.46-.93.35-.93q-.23-.12-.7-.82l.59-1.63q-.24-.23-.47-.64t-.47-.87q0-.24.47-.7-.12-.35-.12-1.17l.24-.46q.23-.24.23-.47l-.58-.82-.12-1.98q0-.23-.35-.58-.23-.12-.52-.35-.3-.23-.76-.46l-.7-1.29q.12.12-2.56.24h-.12q-.35 0-1.63-.94-1.63-.93-2.21-1.04-.35 0-.7.7-.24.69-.12.81 0 .35.82 1.17l.81.81-.35 1.52-.46.93v.35q0 .23-.12.46-.12.12-.23.24-.12.11-.24.23 0 .12-.06.41-.05.29-.17.75l-.23.82q0 .23.35.58t.35.59l-.12 1.39q.12.24.29.7.18.47.29 1.05v.82q0 .35-.11.81-.12.35.11.58l.23.12q-.46.23-.23.82.35 1.28.23 1.51l-.34.93q.11.47.11.99 0 .53.12 1.23-.35.35-.7 1.05l1.16.69q.24.35.35 1.17 0 .81-.46 1.75-.35.11-.7.7.46.23.81 1.04l-.46 1.75q.11.23.23.58t.23.82l-.11.35q-.24.23-.24.35-.11.46-.17 1.11-.06.64-.06 1.22.23.12.35.7 0 .35.06.87.06.53.17 1.11l.7.7q.24.23.24.93l-1.05.47q-.58.23-.58 1.04l1.51 1.52q.12.12.23.12h-.11l-.12-.12h-.47q.47 0 .47.7-.12.46-.29.93-.18.47-.41 1.05l.58.58q.47.47.47.7l-.35.58q-.35.47-.35.7l.58.93q.59.94.59 1.05 0 .47-.7.82v.46q0 1.17.81 1.05l.47-.11h.23q.82 0 1.28.46.47.47.7.47m-14.21-50.45q.35.12.7-.46-.12-.12-.35-.12-.35 0-.35.58m4.77 1.17q.35.11.7-.47-.35-.23-.58 0-.12.12-.12.47m-.93 2.21-1.28 1.4h.47q.35 0 .93-.12.58 0 .58-.46l-.23-.82Zm19.46 3.26.58.12q.12-.12.12-.47-.24-.23-.58-.23Zm.12 7.81 1.51-1.05q-.35-.23-.35-.47 0-.81-.58-1.28l-.47.12q-.11.11 0 .7-.11.35-.35.75-.23.41-.46.99.46.24.7.24m-24.82 6.76.93.81q.12-.47-.11-1.16Zm1.05 3.72v.24q.58-.24 1.16-.82-.46-.47-.81-.47v.24q0 .23-.35.81m28.78 2.33-.59.94 1.17-.35v-.47Zm1.63 1.52q.46.11.93-.35l-.7-.12q-.23.23-.23.47m-2.22.46h.35v-.23h-.35Zm-27.03 4.78.7.47.12-.35Zm-.58 3.15v.35l.58-.24Zm22.49 3.72q.23 0-.35-.35l-.24.24q.12.11.59.11m-18.64 2.33h.35q.58 0 1.39-.58v-.46q-.58-.7-.93-.94l-1.05 1.52q0 .23.24.46m21.78-.69-.11-.59q-.24 0-.35.12l.17.23q.18.24.29.24m-2.91.23q0-.23-.23-.47-.12-.23-.47.12.23.35.7.35m-22.02.7q.7.46 1.05-.47-.7.23-1.05.47m.12 4.66q-.35-.58-.35-.82l-.47.12.12.46q.23.24.7.24m.46-.58v.46l.59-.12q.11-.11-.12-.58Zm23.3 2.44.59.35q.58-.93.46-1.16h-.58Zm-13.51 2.8h.12l-.12-.35h-.23Zm-1.17 5.36h.59q.35-.59.58-.59.58 0 1.05.35l.23-.35-.58-1.16q-.12-.35-.47-.35-.23 0-.58.23-.35.24-.93 1.05-.12.12-.12.47t.23.35m32.62 3.03-.7.23q-.24 0-.35-.12l-.47-.23h-.87q-.53 0-1.11-.12-.12-.11-.12-.58 0 .23.12-.35t.35-1.98v-.47q0-.58-.12-.93l-.35-1.05.24-.46.23-.58q-.12-.24-.12-1.05l.24-.59v-.93l.35-1.16-.82-.47.58-1.28-.35-.7q.24-.58.7-1.05v-.11q-.58-.47-1.28-1.4l.12-1.4q.35-.35.46-.58 0-.7-.11-.94l-.35-.69q0-.24.35-.94.35-.58.35-.93l-.59-.93q-.35-.35-.46-.7v-1.98q.23-.12.58-.47-.23-.46-.82-.93.24-.23.24-.7 0-.35-.12-.81-.12-.47-.35-.93 1.17-.7 1.63-.47l.35-.12q.12-.23.12-.29v-.06q0-.46-.7-.93h-1.05q0-.12-.06-.17-.06-.06-.06-.18 0-.46.35-1.16l-.11-.82q-.12-.12-.12-1.75v-1.28q0-.7-.12-1.51.7 0 .94-.24-.24-.11-.47-.93v-.23q0-.35-.47-.93v-1.87h.24q.35 0 .87-.29.53-.29.53-.41 0-.58-2.1-.34.58-.94.35-1.4l-.35-.7q0-.35.46-.7l.24-.58v-.47l-.82-3.15q0-.69 1.05-1.86 0-.23-.23-.47.58-.23.81-.46v-.23q-.46-.24-.81-.24-.7-1.05-.7-1.51 0-.23.23-.47.12-.11.12-.46l-.12-2.92q-.35-.23-.58-.93l.58-1.4q-.23-3.03-.41-4.72-.17-1.68-.17-2.03t-.23-1.29l-.24-.93.12-.81q.23-.24.7-.35h.81q0-.12.47-.24.23 0 .47 1.29 0 .58.58.58.7 0 .46-1.4l1.64-.35q.35.35 1.04.7.59 0 .59-.58v-.35l.93-.12.7.23h1.63v-.11.23q0 .7.81 1.05h.59q.23.35.58.58h.35q.12 0 .12-.23-.47-.7-.59-1.4v-.47l.24-.23q.46.23.58.58l1.16-.46q.35 0 .82.11l1.16.12.35 1.28q.59.47 1.29 1.4-.12-.12-.24.93-.35.12-.35.59 0 .23.12.81t.35 1.4l.58 1.16v.59q.58 1.51.58 3.96 0 1.98.82 2.68 0 .93.81 3.84l.59 1.17q-.47.7-.82 2.09.12.24.12.59v.58q.11.47.17.87.06.41.06.76t.06.7.41.7q.58.7.7 3.96.58.23.7.58-.12.47.23.82.7.35.7.46v.82q.46.81.64 1.22l.17.41q.7 0 .82-1.05.23-1.05.35-1.05.35.24.81.47.47 0 .47-.82 0-.35-.47-.93-.35-.35-.35-1.4 0-.23.06-.58t.18-.81q.23-.47.29-.88t.17-.76l.35-.46v-.58q0-.35-.11-.82l-.12-1.51q.35 0 .93-.47 0-.12-.12-.12-.23-.23-.46-.23-.35-.58-.35-.82 0-.23.35-.93l.35-1.05q.7-.58.7-.81-.24-.23-.7-.93 0-.47.35-.82l.35-.58q-.12-.35 0-1.17 0-.23.7-1.05l-.7-.69.46-.82q1.52-1.51 1.52-2.1 0-.35-.47-.93-.58-.58-.58-1.63v-.7q.58-.93 1.11-1.75.52-.81.75-1.63.12-.46.18-.58t.06 0q0-.47-.24-.47-.11 0-.58.47-.47-.23-.7-1.4v-.93q.12-.47.29-.82.18-.35.29-.69l1.05-.24q.94 0 1.4.35l.47.35q.35-.12 1.05-.58l.81-.23 1.87.58v1.28q.23.7.69.7.7-.23.7-.7l-.11-.58q-.12-.24-.12-.59 0-.23.12-.34l.93-.35q.23-.47.7-.59l1.86.47q.23 0 .35.12l.35.23q.23-.23.7-.35l3.03-.12q.12.24.29.53.18.29.29.64l-.35.58q-.11.47-.17.82t-.06.7q0 .34.47.81-.12.12-.18.23-.06.12-.29.35l-.23.7v1.28l.11.12-.11.7q.11.23.17.93t.06 1.17q0 .11.06.46t.17.82l.24 1.05-.35 1.28q-.35.81-.47 1.4.23.35.47.69.23.35.58.82-.35-.47-.58-.82-.24-.34-.47-.58v-.11q-1.75-2.68-3.15-4.61-1.39-1.92-2.44-3.2l-.12.23q.93 1.52 2.62 3.85t3.91 5.36q-.47-.24-.59-.59-.81.12-.7.7l.47.7q-.12.12 0 .7.23.12.41.35.17.23.41.47l-.47.58q-.12.23-.18.35-.05.12-.05.23 0 .47.81.47-.35 1.75-.46 1.51l.93.93q0 .24-.06.59t-.18.81q-.23.24-.58.64-.35.41-.81.99l-.47.94q0 .93.35 1.1.35.18.7.29.23-.35.47-.35.46 0 .58.7 0 .24-.82 1.05.24.58.93 1.52l-.93.81q-.7.47-.7.93l.24.47h.35q.46 0 .93-.82h.46l.12.35-.06.35q-.06.35-.17 1.05-.12.82-.18 1.34-.06.53-.06.76-.58.81-.58 1.16-.23-.23-.35-.23-.23 0-.23.58 0 .7.58 3.27.23.58.35 1.16t.23 1.17l.12 1.98q-.23.58-.23.81v.82q0 2.33-.58 2.33 0-.12-.12-.12l.46.7q.12.12.12.35v.35q.35.23.58.81l.24 1.75v.7l-.12 1.17q-.23.23-.58.35-.47.11-.47.58l.12 1.28.46-.12q.59 0 .7.47.24.23 0 .93l-.23.82q.12.11.35.58 0 .35-.12.47v.46q-.11.35-.11.58l.11 3.15q.35.35.47.7l-.35.93q.12.93.12 1.34t.11.18q-.23 1.04-.35 1.16l.24.35q.11.23.17.35t.06.23q0 .93-.35 1.05h-.12.12v-.12l-.93-.35h-1.05q-.23 0-.58.12h-.94l-.46-.12q-.23 0-.47.12l-.46.12-2.1-.47q-.12 0-.47.35t-.7.35q-.46 0-1.63-.81-.11.23-1.16.93-.82 0-.82-.93l.47-5.01v-.59q-.35-.11-.82 0 .59-.46.47-1.16l-.23-.93v-.12q0-.35.7-.7-.24-.35-.47-.81-.12-.35-.18-.65-.05-.29-.05-.52.11-.23.11-1.05l-.35-.7q.7-.11 1.05-.93-.11-.23-.7-.47.12-.58.18-.99.06-.4-.06-.64l-.47-1.51.24-1.17.23-.93-.7-2.33q0-.35.58-.93-.23-.12-.46-.35-.24-.23-.47-.47.23-.69.23-2.09 0-.35.12-.47l-.35-.93q0-1.17.35-1.52t.35-.93q0-.93-.7-1.75.35.24.47.12.46 0 .58-.35l-1.05-.35q-.12-.11-.23-.29-.12-.17-.35-.29.23-.35.81-.7 0 .23.24.47 0-.12.23-.35-1.63-.93-1.4-.93-.46 0-.7.58v1.4q-.46.11-.46.69v.7q-.12.12-.35.7l.11 1.63q-.11.12-.35.41-.23.29-.69.76.58.47.81 1.86 0 .47-.12.59-.69.69-.81 1.74-.12.59-.23 1.11-.12.52-.35 1.11l.58.11v1.75l-.58.93q.11.12.23.82.12.35.17.7.06.35-.05.7l-.35.7h-.35l-.7-.35q-.93 2.44-.93 1.98l.93.93q.23.7.23 1.51v1.17q-.12.11-.41.41-.29.29-.52.75-.23.47-.23 1.28l.23.24q.11.11.11.35l-.34 2.56q0 .35-.47.82v.35q0 .46-.47.58.59 1.05.7 1.75 0 .23-.23.69-.47.12-1.05.3-.58.17-1.16.4l-1.4-.11-1.4-.24-1.63.47q-.35 0-.47-.12 0-.11-.23-.93-.47-.46-.58-.81l-.47-1.87q.23-.35.58-.35v-.81q.94-.24 1.05-.59-.11-.46-.46-.46-.7.11-.7 1.05h-.7l.23-2.57-.23-.93-.35-.93q0-.82 1.16-.82l.47.24q.47 0 .58-.47-1.05-.46-1.63-.46l-.35.11q0-.11.23-.58-.34-.35-.46-.35l-.82.12q-.11-.12-.11-.94 0-.69.35-1.16l.23-.58q-.23-.24-.53-.47-.29-.23-.75-.58-.12-.12-.12-.41t-.12-.76l.47-2.09q-.12-.12-.23-.24-.12-.11-.35-.35l-.23-1.28q-.12-.11-.3-.29-.17-.17-.4-.52.11-.12.11-.35 0-.47-.35-.94v-.46l.35-.12q1.17-.11 1.17-.7 0-.46-1.52-.58-.35-.93-.35-1.63l.24-.35v-.23q-.35-.82-.82-1.05l-.12-.23v-.06q0-.06.12-.18l-.47-.35.94-1.51q0-.58-.7-1.05 0-.12.58-.7l-1.51-.23q-.35-.58-.47-.58-.58.23-.7.46v.58l-.35.35v.47q.12.23.23.58.12.35.24.82 0 .58-.35.93-.47.35-.47.47l1.05 1.74q.12.12.12.41t.11.53q-.11-.12-.23.34-.47.12-.58.59l-.12.58q.47.47.82.47l.23 6.87-.23.35q.11.35.11 1.16 0 .35-.35 1.05l-.23.7q0 .12.06.23.06.12.17.35.24.35 0 1.29.47.58.24 1.86.11 1.28.17 2.1.06.81-.06 1.28.24.35.35.64.12.29.24.52-.24.7-.41 1.46-.18.76-.41 1.69l.58.81v.47q-.23.23-.64.47-.41.23-.87.46-.7 0-1.52-.46l-1.16-.59q-.35.35-.7.59-.47.11-.87.17-.41.06-.64.06l-1.64-.23q-.11 0-.69.35m28.77-69.44h.47q0-.47-.24-.7Zm-23.88 4.31.46-.23-.23-.35q-.12.11-.12.23t-.11.35m26.44.93.47-.35q0-.11-.47 0-.11.12 0 .35m1.52.82q.35.23.58-.47-.11-.11-.35-.11-.46 0-.23.58m-32.39 2.09q.35.12.58-.11.24-.23-.23-.58-.35.11-.35.69m8.39 2.45q.47-.23.58-.35-.46-.93-.35-1.4.24-.23.47-.52t.46-.64q-.93-.23-1.28-.12-.7 0-.81.12-.59.35-.59.81 0 2.1 1.52 2.1m-2.45 4.66q.12-.23-.11-.46-.12-.12-.59.11.24.35.7.35m-5.12 3.26q0-.23-.24-.46-.11-.24-.46.11 0 .35.7.35m32.73 1.52q0-.12-.35-.47l-.23.24q.12.11.29.11.18 0 .29.12m-37.16.58q.35.23.58-.35-.11-.12-.35-.12-.35 0-.23.47m40.19 1.05v-.47q-.11-.23-.35 0Zm-2.79.23q0-.35-.24-.58-.23 0-.46.23 0 .35.7.35m-25.17 5.25h.58q.24-.24.24-.59-.58.12-.82.59m.12 1.16h1.05l-.24-.35Zm5.47.7q0-.23-.46-.23.35.35.46.23m-10.25 7.57.47.35q.11 0 .23-.12l-.46-.34q-.12 0-.24.11m10.25 2.22h.7v-.82q-.58.58-.81.58.11 0 .11.24m-9.32-.35-.11.81.81-.12q-.11-.58-.7-.69m29.13 4.42q.58-.58.58-1.16v-.35q-.11-.23-.4-.47-.3-.23-.65-.7l-.23 1.29q0 .46.7 1.39m-12.7.94q1.52-.24 1.63-.12l-.11-.93q-.59-.59-1.05-.47-.24.23-.47 1.52m19.81-1.17-.12.12q.12 0 .12-.06Zm-22.37 4.31h.23l-.23-.35h-.12Zm-14.33 2.91q.35.12.7-.35-.35-.35-.59-.11-.23.23-.11.46m-3.73 2.33q.12-.11.12-.35 0-.35-.47-.35-.12.35.35.7m37.05 6.18q.46 0 .7-.23-.59-.94-.24-1.52.24-.23.47-.47.23-.23.47-.58-.47-.11-.82-.17t-.58-.06q-.35 0-.82.23-.58.35-.58 1.05.23 1.75 1.4 1.75m-32.97-.82q.11-.23-.24-.46-.11-.24-.46.11.23.35.7.35m-3.26 9.32q.23-.23 1.16-.35.82 0 .7-.81l-.12-.35-.46-.12-1.05.35q-.12 0-.12-.12h-.23q-.47 0-.47.35 0 .7.59 1.05m77.59 2.69-.93-.35q-1.52-.23-2.74-.29-1.23-.06-2.16-.17l-.93.23-2.8-.7-1.04.35-3.27-.47-1.74.12q-.24 0-.47.12l-.47.11-4.89-.7-.81.24q-.24-.12-.65-.24-.4-.11-.87-.23l-.35.23q-.23-.11-1.16-.11l-.24.11h-2.09q-1.75 0-1.4-1.98l.23-1.51q.12-.82.12-1.34v-.87q.11-.24.46-.64.35-.41 1.17-.99v-.24l-1.17-.23-.11-.47q0-.81.46-1.28.7-.93.82-1.63-.58-.12-.82-.93l-.35-1.28.24-3.15.81.35q.12-.12.12-.7v-.7q-.35-.35-.58-.7l-.12-.23q0-.23.23-.93l.24-.7q0-.47-.47-.82 0-.46.23-1.16l-.23-.35q0-.35.12-.35-.12-.58.11-1.28l.35-.58-.23-1.17q-.12-.58-.23-.87-.12-.29-.12-.41 0-.23.47-.7.46-.47.46-.7l-.23-.7q-.35-.35-.35-.46l.58-1.98q-.58-.24-.23-1.4l.35-1.4q-.12-.58-.18-.93-.05-.35-.05-.58l.23-1.64.58-.81q-.12-.23-.35-.93l.12-1.87q-.35-.7-.35-.81l.93-1.98-.06-.12q-.06-.12-.17-.35 0-.35.06-.87.05-.53.17-1.34l-.23-1.4q.11.12.23-1.75l-.23-.7q-.12-.23-.18-.35-.06-.11-.06-.23.12-.23.24-.47.11-.23.11-.58l.24-3.61.35-8.74q.58-1.4.58-1.98l-.12-.58q0-.23-.11-.35-.12-.12-.12-.23l-.12-1.4q0-.24.47-1.28.46.11 1.05.17.58.06 1.16.29.35.35 1.05.7.12 0 .47-.46.35-.35.58-.35l.7.46q.7.47 2.1.7.23-.47.46-.7l.93-.11q.47-.12.82-.12l.46.35q.24.23.7.11l1.17-.23q.47-.11.7-.11h.35l2.09.58q.24-.12.53-.18t.76-.17l1.04.23q.12.47.7.47.12 0 .59-.35.46-.47.58-.24l.7.24q.23-.24.58-.35l.82.23q.23.12.4.23.18.12.29.12l.59-.12q0 .24.46 1.05.24-.35 0-.93l.94-.35q.23.12.69.35.47.23 1.05.47 0 .23.35.58h.35l.7-.82q.23-.11.64-.11t.88-.12l.81.12-.23 4.42q-.58.47-.58 1.05l.11.94-.23 5.59q0 .81-1.28.81-.35-.35-.7-.46-.47-.12-1.28-.18-.82-.06-1.87.06-.23 0-.58-.06t-.93-.17l-1.05-.12-1.86.23-1.98-.11q-.24 0-.47-.12l-.47-.12q-.93-.11-1.45-.11h-.64q-.47-.35-.94-.35-.23 0-.81.46-.58.47-.82.47 0 .35-.11.47l.11.58q.12.23.12.52t.12.76q-1.17.47-1.29 3.38l.47.12h.82q.11.11.11.58 0 .46-.46.93l-.59.58q.47 1.05.59 2.22 0 .23-.47 1.04-.47.82-.47 1.4l-.23-.35-.35.24v.35q.23.23.93.23 0 .23.06.52t.18.64q.58.94 1.05.94l.81-.35q.12.11.53.4.4.3.52.3-.12-.12.93-.7 1.05.11 1.52-.12.81.82 1.16.82h.47l.81-.35q.12 0 .35-.12.24-.12.47-.23l.7-.24q.35 0 .81.47.59.58.7.58.35-.23 1.05-.35l.06.18q.06.17.06.52 0 .47-.06 1.34-.06.88-.18 2.16l-.23.46q.12.35.12 1.63-.12.24-.24.82-.11.58-.11.81v.24q0 .23.23 1.16v.47q0 .81-.47 1.4-1.16 1.16-1.39 1.16l-1.05-.35q-.23 0-.58.12l-.7.12q-.24-.24-.53-.41-.29-.18-.75-.29-.24.11-.53.17t-.76.18l-1.28-.35q-1.16-.35-1.51-.35l-1.17.23q-.23 0-.58-.82.47-.11.58-.58h.82q.46 0 .93.12l.12-.47v-.23q0-.35-.47-.82-.12 0-.41-.05-.29-.06-.75-.18-.24.23-.24.93-.35-.11-.7.59-.23-.24-.81.34v.82q-.24.23-.47.82-.81.35-.81.93l.23.23q.12.12.12.35v1.17q0 .35-.12.93l.35.46q-.23.7-1.75 2.92v.23q0 .47.35.81.23-.69 1.28-1.51.47.58.47 1.17 0 .11-1.4 1.39l.47.82.46-.12q.47 0 .47.7-.23.23-.58.93-.24.47-.24.94l.35.34q0 .12-.7 1.52l.35.93q0 .58-.81.7.11.12.58.12l.12.35q-.35.35-.47.7.23.69.82.81.58 0 .93.12.93-.12 1.86-.12h1.98q.12.47.59.47.23 0 1.04-1.05.7 0 .94 1.28h.35q0-.35.11-.58.82-.35 2.45-.24l1.4.59q0 .11.93.11.46 0 .58.12l1.52-.35q.34 0 .58-.23.11-.12.81-.12.94.23.94 1.4 0 .47-.35 2.45l-.18.23q-.17.23-.17.46v2.92l-.7.23q.81 1.63.81 2.68 0 .58-.7 1.16l.35 1.52Zm.58-65.01h.12q.7 0 1.16-.81-.35-.47-.58-.47l-1.4.82q.35.46.7.46m-2.68 2.22.58.23q0-.12-.35-.47Zm-17.48 1.86.59-1.28-.59-.23-.46-.35q-.7.46-.7 1.28.7.46 1.16.58m-3.61 8.74.7.12q0-.24-.06-.47-.05-.23-.17-.47h-.82l-.11.47Zm-3.49 8.39-.12.11q0-.23.12-.11m6.17 2.68q.59-.94-.23-1.4-.12.12-.35.7 0 .35.58.7m-2.79 1.28.11-1.75-.35-.35h-.81l-.12.35.35.7q.23.12 0 .7.35 0 .82.35m1.51 3.03v-.59q0-.34.12-.69-.12 0-.47.35 0 .34.35.93m13.98-.24h.12q.23 0 1.16-.23l-.58-.58q-.23-.35-.81.23 0 .47.11.58m-11.88 11.65.58.35q.12-.11-.23-.46-.24 0-.35.11m.35 3.38-.12.7q.23 0 .93-.23l-.35-.93q-.46.11-.46.46m-5.13 2.22.35.93v-.58q0-.35.12-.59-.12-.11-.47.24m.47 3.49q.11-.23-.12-.46-.23-.24-.58 0 .12.23.7.46m-1.17 6.41q.35-.47.12-.93h-.47l-.23.7q.23.23.58.23m17.36 4.89q0-.23-.23-.46-.12-.12-.47.11 0 .35.7.35m.35 2.57 2.1-.35-.35-.82q-.23-.58-.93-.58l-1.05.35q0 .35.06.7.05.35.17.7m30.88 2.79q-.93 0-1.51-.35-.47-.35-1.28-.35l-.12.12h-.23q-.12.12-.82-.23l-.93-.35-.11.11q0 .12-.12.12.23 0-.93-.58-.59 0-1.4-.47l-1.63-1.4q-.24-.11-.64-.23-.41-.12-.88-.23-.58-.35-1.45-1.05-.88-.7-1.81-1.87l-.12-.81-.58-.82-.23-1.63q-.12-.46-.41-1.1t-.52-1.46q-.35-.12-.94-.93-.69-1.63-.69-2.22 0-.11.23-.35.23-.35.35-.35-.23-.34-1.17-.93l-.11-1.28q.81-.58 1.05-.58h.81q.35-.12.82-.23.46-.12 1.04-.24.59-.23.94.35.11.47.7.47.11 0 .58-.82l1.05-1.4q1.74.59 2.09.47l1.87-1.28h1.16v1.28l1.05.47-.23 1.74q0 .24.35.59t.35.46q.11.12-.12.59l-.35.58q.23.93 1.05 1.63.23 0 .93.23 0 .47.41.82t.87.11l.24 1.05q.23.59.46.59l.47-.24q.23-.23.46-.23l.59.12q.23 0 .35.11.11.12.23.12t.47-.35q.46-.23.58-.23.11-.12.81.11l.7.24.47-.24.35-.11.7.23q.23-.23.23-.47 0-.93.35-2.44l1.05-.12q.58 0 .7-.47-.12-.11-.35-.35-.23-.23-.47-.46l-.23-.99q-.12-.53-.23-1.11 0-.35.35-.7.35-.11.58-.35l-.47.12q-.58 0-.93-1.17l-.47-1.39q-.35-.24-.58-.59-.46-.46-.46-.93 0-.23.11-.35-.11-.23-.7 0l-.58-1.63q-.12 0-.12.12-.23.23-.35.23-.11-.12-.46-.12l-.23-1.04-.82-.35-1.4-1.29q-.11-.23-.41-.34-.29-.12-.75-.35l-.12-.94q-.12-.23-.35-.4-.23-.18-.47-.41h-.58q-.11.11-.58.11-.12.12-.58-.58-.24-.46-.47-.76-.23-.29-.46-.4l-1.87-1.17-.93-.35-.12-1.05-1.98-1.04-.46-.82q-.24-.58-.94-.58h-.11q-.35-.35-.35-.7-1.63-2.68-1.75-2.68l-.7.23h-.12q-.58 0-.69-.81l-.35-1.4q-1.17 0-1.52-2.68l-1.05-.47q-.11-.81-.17-1.16t-.06-.24q.12-1.04.23-.81-.11-.58-.7-.82-.35 0-.58-.35-.11-1.28 0-2.5.12-1.22.23-2.51 0-.35-.23-1.04l-.35-.82.35-.47v-.46q0-1.17.47-2.57.11 0 .46-.05.35-.06.59-.41l-.7-1.52 1.51-2.91q.93-1.63 1.52-1.63l.7.12q.11 0 .23-.12 0-.12-.23-.93h.69l.7-.93q.24-.24 1.28-.47l.47-1.28h.47q.11.12.23.23.12.12.23.35.82-.35 1.4-1.63l1.05-.82h.17q.18 0 .53-.11l.58.11q.35.12.58.12.35 0 1.17-.81.93-.7 1.05-.7l1.05.58q0 .35.11.58l1.87-.93q.35 0 1.74 1.05.24.35 0 1.63l.35-.12.12-.46q.23-.12.47-.35.23-.24.58-.47 0-.23.35-.7.11.12.29.24.17.11.41.34.46.47.7.47.23-.23.69-.35h.24q1.05 0 2.33.82l1.51 1.16.12.58q-.23 0-.58.35.35.59 1.05.59v.46q.23.12.81-.11.23.7 1.17.7.23 0 .58.58-.12.35 0 .81 1.28 2.33 1.28 2.1v.12q0 .35-.47 1.28-.58 1.4-.58 1.51 0 .47 1.4.7 1.28.23 1.16.47l.59.81q-.12.12-.12.47t.23 1.05q.47 1.05.47 1.51-.23.24-.58.53t-.82.64q-.23.11-.76.23-.52.12-1.45.23l-2.57.35q-.23.12-.58.24-.35.11-.7.23l-1.39-.47q-.7.24-1.05 1.28-.47 1.17-.94 1.17-.11 0-.35-.58-.34-.59-.46-.59t-.47.35l-.7.12-.23-.81q0-.47.35-.82.23-.47.23-.58l-.58-.7q.47-.35.82-1.4-.7 0-1.75-.35 0-.23-.12-.64-.11-.41-.35-.87l-.46-1.29q-.59-.81-2.33-1.28l-1.05.12q-.23 0-.53.06-.29.06-.75.17-.35 0-.94-1.05-.23 0-.23.47l.58 1.16q-1.28 1.05-2.09.94v1.74q-.24.24-.35.47 0 .23.06.58.05.35.17.82.23 1.05.12 1.4 0 .11-.12.23-.23.23-.23.58 0 .24.35.58l.23.47q0 .12-.82.93-.81.82-.81.93.12 2.22 1.75 2.22h.35q.35 0 .7-.06.34-.06.69-.06.47 0 .94.06.46.06.93.17v1.17q0 .7 1.51 1.98.24 0 .64.06.41.06.88.17l.35.7q.23.12.81.7l.47.93q.23.35.46.35.94-.11 1.17-.23.12 0 0 0 .35 3.03.47 3.03l1.28-1.52h.35l.46 1.29q.12.11.18.11h.06l.69-.23q.47.12.35 1.16l1.17.59q.12 0 .81.93 1.05 0 1.52.81.12.24.23.53.12.29.35.76l.93.46v.58q0 .35.12.94 0 .58.23.81.12 0 .82-.81.58.11.81 1.16.24.93.7.93.24 0 .35-.11.12.35.12.75v.88q0 .35.47.64.46.29.81.17l.47 1.52q.23.58-.35.81.23.24.46.12l-.11.58.58.94.12.93q.35.35.46.58.47.58.58 3.84-.11.35-.11 1.4l-.47.7q.23.47.35 1.75l-.46.47q0 .69-1.29 3.84l-.46-.35q-.35.12-.35.7 0 1.51-.12 1.63l-1.16.7q.11.81 0 1.16l-1.87 1.52-.46.7q-.82.58-1.58 1.1-.75.53-1.57.76-.12 0-.41.06t-.75.17q-.47.59-1.63 1.4l-1.17-.35-.7.35q-.23.24-1.4.24h-1.86q-.47.11-.87.23-.41.12-1 .23m-11.41-58.83q.11-.12.81-.35l.93.11.94.24q.93-.24.93-1.05l-.12-.47-1.63.24q-.58 0-1.16.46-.82-.58-1.17-.58.12.23.23.58.12.35.24.82m-2.22-.24q.35.24.59-.46-.24-.23-.47 0t-.12.46m23.65-.11v.46l.47-.46q0-.12-.47 0m1.52 1.05q.35.11.7-.35-.12-.12-.35-.12-.35 0-.35.47m-19.81 1.28q0-.47-.23-.47-.12-.23-.47.12 0 .35.7.35m-7.92 3.38h-.35q.12.11.18.23.05.12.17.23v-.35Zm15.73 12.46q.23 0 .46-.23.24-.23-.23-.47-.23.24-.23.7m-9.09 0q0-.23-.23-.46-.23-.24-.47.23 0 .35.7.23m16.55 14.8q.23 0 .46-.23 0-.35-.23-.59-.35.24-.23.82m4.89 1.63q0-.23-.23-.47-.35-.23-.59.24.24.35.82.23m1.98 4.43q0-.35-.35-.47-.23 0-.47.23.24.35.82.24m-6.53.35h-.11q.11.11 0 .11Zm-17.7 2.56.46-.35-.23-.23-.12.23q-.11.23-.11.35m4.07 13.16.47-.11q.12-.12.82-.12l1.39-1.63q-.23-.23-.46-.76-.24-.52-.47-1.22v-.35q0-.58.35-.93l-1.16.11.69 2.33q0 .94-.23.7l-.11-.11h-.24q-.23.35-1.28 1.4.23.23.23.69m5.83-3.84q0-.12-.35-.47l-.23.24.23.11q.23.12.35.12m-7.69 1.51q0-.23-.23-.46-.12-.23-.47.11 0 .35.7.35m7.92.24q.12-.24-.11-.47-.12-.23-.59.23.24.35.7.24"/><path fill="#9fa6b2" d="M858.526 690.252c-42.617 0-74.46 42.55-74.46 80.56 0 12.148 3.176 20.48 9.702 25.525 6.898 5.321 16.534 6 24.155 6 5.475 0 11.476-.403 17.805-.848 14.607-.975 30.989-.975 45.596 0 6.35.445 12.308.848 17.805.848 16.73.021 33.857-3.73 33.857-31.525 0-38.01-31.843-80.56-74.46-80.56"/><path fill="#9fa6b2" d="M797.534 713.806a19.272 18.656 0 0 0 10.863-11.173c2.562-6.869 1.642-15.158-2.497-22.747-7.227-13.187-23.104-20.543-34.667-15.943a19.272 18.656 0 0 0-10.863 11.215c-2.584 6.848-1.664 15.137 2.497 22.726 5.694 10.41 16.469 17.384 26.827 17.384a21.9 21.2 0 0 0 7.84-1.484m41.02-24.867q1.664 0 3.328-.318c13.052-2.587 20.936-19.504 17.914-38.542-2.978-18.995-16.01-32.266-29.083-29.68-13.074 2.587-20.915 19.504-17.914 38.52 2.737 17.385 13.578 30.02 25.754 30.02m118.129-13.759a19.272 18.656 0 0 0-10.863-11.215c-11.607-4.62-27.462 2.756-34.667 15.943-4.161 7.59-5.037 15.878-2.475 22.747a19.272 18.656 0 0 0 18.68 12.635c10.36 0 21.134-6.996 26.828-17.384 4.16-7.59 5.06-15.857 2.497-22.747m-72.796 13.461q1.687.318 3.329.318c12.198 0 23.039-12.614 25.754-30.02 3-19.016-4.861-35.933-17.892-38.52-13.096-2.586-26.127 10.685-29.127 29.68-2.956 19.017 4.906 35.955 17.958 38.542m336.553-14.468v-60.282h-35.7v23.868l-45.9-46.818-127.5 130.05h30.6v84.15h79.05v-68.85h35.7v68.85h79.05v-84.15h30.6Z"/></g><path fill="transparent" stroke="transparent" stroke-width="2.698" d="M250 263.04h1500v973.92H250z"/></g></svg>